<?xml version="1.0" encoding="utf-8"?>
<!-- Generator: Adobe Illustrator 26.3.1, SVG Export Plug-In . SVG Version: 6.00 Build 0)  -->
<svg version="1.1" id="Layer_2_00000119117735838127202510000015652261825046626227_"
	 xmlns="http://www.w3.org/2000/svg" xmlns:xlink="http://www.w3.org/1999/xlink" x="0px" y="0px" viewBox="0 0 109.7 112.7"
	 style="enable-background:new 0 0 109.7 112.7;" xml:space="preserve">
<style type="text/css">
	.st0{fill:#FFFFFF;}
</style>
<g id="Layer_1-2">
	<g>
		<path class="st0" d="M54.9,45.7c-5.8,0-10.4,4.7-10.4,10.4s4.7,10.4,10.4,10.4s10.4-4.7,10.4-10.4S60.6,45.7,54.9,45.7z
			 M54.9,64.5c-4.6,0-8.4-3.8-8.4-8.4s3.8-8.4,8.4-8.4s8.4,3.8,8.4,8.4S59.5,64.5,54.9,64.5z"/>
		<path class="st0" d="M34.1,99.6c-0.5-0.4-7-5.2-9.1-6.9c-1.9-1.5-3-2.8-4.5-4.3c-2.4-2.6-4.1-4.9-4.9-5.9
			c-1.4-1.8-2.5-3.6-3.8-5.5c0,0.1,0,0.2,0,0.2c0.1,0.2,0.2,0.5,0.3,0.7c1.6,3.9,3.7,7.5,6.4,10.6c0.9,1,0.9,1.9,0.5,2.9
			c-0.2,0.5-0.5,1-0.8,1.5c-0.8,1.1-1.6,2.2-2.4,3.3l0.1,0.1c0.3-0.3,0.6-0.6,1-0.8c1.3-0.8,2.5-1.7,3.9-2.4
			c0.9-0.5,1.8-0.4,2.7,0.4c2.9,2.5,6.1,4.5,9.6,6c0.5,0.2,1.1,0.4,1.6,0.6C34.5,99.9,34.3,99.7,34.1,99.6L34.1,99.6z"/>
		<path class="st0" d="M92.3,83.4c-0.8,1-2.5,3.3-4.9,5.9c-1.4,1.5-2.6,2.8-4.5,4.3c-2.1,1.7-8.6,6.5-9.2,6.9
			c-0.2,0.2-0.4,0.3-0.6,0.6c0.6-0.2,1.1-0.4,1.6-0.6c3.5-1.5,6.8-3.5,9.6-6c0.9-0.8,1.8-0.9,2.7-0.4c1.3,0.7,2.6,1.6,3.9,2.4
			c0.3,0.2,0.7,0.5,1,0.8l0.1-0.1c-0.8-1.1-1.6-2.2-2.4-3.3c-0.3-0.5-0.6-1-0.8-1.5c-0.5-1.1-0.4-2,0.5-2.9
			c2.7-3.2,4.8-6.7,6.4-10.6c0.1-0.2,0.2-0.5,0.3-0.7c0-0.1,0-0.1,0-0.2C94.8,79.8,93.6,81.6,92.3,83.4L92.3,83.4z"/>
		<circle class="st0" cx="54.9" cy="56.1" r="6"/>
		<path class="st0" d="M55.3,70.6c-0.7,2.7-0.8,5.7-3.7,6.8c3.5,11.6,2.9,23.6,3.8,35.3c0.3-5.7,0.5-11.5,0.9-17.3
			c0.4-6.1,0.8-12.1,3-17.9C56.2,76.3,56,73.3,55.3,70.6L55.3,70.6z"/>
		<path class="st0" d="M75.5,52.2c-1.2,3.3-4.3,3.3-7.2,4.1c3,0.6,6,0.7,7.2,3.7c11.2-3.4,22.8-3,34.3-3.8c-0.6,0-1.2-0.1-1.8-0.2
			c-6.2-0.3-12.5-0.6-18.7-1.1C84.6,54.6,79.9,54.2,75.5,52.2L75.5,52.2z"/>
		<path class="st0" d="M34.7,60.1c1.2-3.2,4.3-3.3,7.2-4c-2.9-0.7-5.9-0.7-7.1-3.7c-11.3,3.5-23,3-34.7,3.7c6,0.3,12,0.5,17.9,1
			C23.5,57.6,29.3,57.9,34.7,60.1z"/>
		<path class="st0" d="M66.8,67.5c0.6,0.5,5.9,5.2,13.2,11.7c-5.6-6.3-9.6-10.9-10.2-11.4c-0.1-0.1-0.4-0.4-0.4-0.8
			c0-0.3,0.1-0.5,0.3-0.9c0.7-1,1.2-2.1,1.8-3.3c2.4,1.3,3.3,3.5,3.8,6.1c1-2.8-1.8-8.4-5.2-9.9c-0.1,0.2-0.2,0.4-0.2,0.6
			c-0.3,2.5-1.3,4.6-2.9,6.4c-0.3,0.3-0.4,0.5-0.3,0.8C66.4,67.2,66.7,67.4,66.8,67.5L66.8,67.5z"/>
		<path class="st0" d="M60.8,72.2c1.2-0.5,2.4-0.9,3.4-1.4c0.3-0.2,0.6-0.2,0.9-0.2c0.4,0.1,0.7,0.4,0.8,0.5
			c0.5,0.7,4.5,5.2,10.2,11.5c-5.6-8-9.7-13.8-10.1-14.5c-0.1-0.1-0.3-0.4-0.6-0.5c-0.2-0.1-0.5,0-0.8,0.3c-2,1.4-4.2,2.2-6.7,2.2
			c-0.2,0-0.4,0.1-0.6,0.2c1,3.6,6.3,7,9.2,6.4C63.9,75.9,61.9,74.7,60.8,72.2L60.8,72.2z"/>
		<polygon class="st0" points="84.7,88.6 75.3,75.6 71.8,73.9 73,77.6 		"/>
		<path class="st0" d="M51.7,70.9c-2.5-0.1-4.7-0.9-6.7-2.4c-0.3-0.2-0.6-0.3-0.8-0.3c-0.3,0.1-0.5,0.3-0.6,0.4
			C43.3,69.2,39,74.9,33,82.7c5.9-6.1,10.1-10.5,10.6-11.1c0.1-0.1,0.3-0.4,0.8-0.5c0.2,0,0.5,0,0.9,0.2c1,0.6,2.2,1,3.4,1.5
			c-1.1,2.5-3.2,3.6-5.8,4.3c2.9,0.8,8.2-2.4,9.4-6C52.2,71,52,70.9,51.7,70.9L51.7,70.9z"/>
		<path class="st0" d="M43.4,67.3c0-0.2-0.1-0.5-0.3-0.8c-1.6-1.9-2.5-4.1-2.7-6.5c0-0.2-0.2-0.4-0.2-0.6c-3.5,1.3-6.5,6.9-5.6,9.7
			c0.5-2.6,1.6-4.8,4-6c0.6,1.2,1.1,2.3,1.7,3.3c0.2,0.3,0.3,0.6,0.2,0.9c-0.1,0.4-0.4,0.7-0.5,0.8c-0.6,0.6-4.8,4.9-10.6,11.1
			c7.5-6.2,13-10.8,13.6-11.2C43.1,67.9,43.3,67.7,43.4,67.3L43.4,67.3z"/>
		<polygon class="st0" points="36.3,77.8 37.7,74.2 34.1,75.7 24,88.2 		"/>
		<path class="st0" d="M15.2,30.8c0.8-1,2.4-3.4,4.8-6c1.4-1.5,2.6-2.8,4.4-4.4c2.1-1.8,8.5-6.6,9.1-7.1c0.2-0.2,0.4-0.3,0.5-0.6
			c-0.5,0.2-1.1,0.4-1.6,0.6c-3.5,1.6-6.7,3.6-9.5,6.2c-0.9,0.8-1.8,0.9-2.7,0.4c-1.4-0.7-2.6-1.6-3.9-2.4c-0.4-0.2-0.7-0.5-1-0.8
			l-0.1,0.1c0.8,1.1,1.6,2.2,2.4,3.3c0.3,0.5,0.6,1,0.8,1.5c0.5,1.1,0.4,2-0.4,3c-2.7,3.2-4.8,6.8-6.3,10.7
			c-0.1,0.2-0.2,0.5-0.2,0.7c0,0,0,0.1,0,0.2C12.7,34.4,13.9,32.5,15.2,30.8L15.2,30.8z"/>
		<path class="st0" d="M73.2,11.9c0.5,0.4,7.1,5.1,9.2,6.8c1.9,1.5,3.1,2.8,4.5,4.2c2.4,2.5,4.2,4.8,5,5.8c1.4,1.7,2.6,3.6,3.9,5.4
			c0-0.1,0-0.2,0-0.2c-0.1-0.2-0.2-0.5-0.3-0.7c-1.6-3.9-3.8-7.4-6.6-10.5c-0.9-1-1-1.9-0.5-2.9c0.2-0.5,0.5-1,0.8-1.5
			c0.8-1.1,1.6-2.2,2.3-3.4l-0.1-0.1c-0.3,0.3-0.6,0.6-1,0.8c-1.3,0.8-2.5,1.7-3.9,2.5c-0.9,0.5-1.8,0.4-2.7-0.3
			c-2.9-2.5-6.2-4.4-9.7-5.9c-0.5-0.2-1.1-0.4-1.6-0.6C72.8,11.6,73,11.8,73.2,11.9L73.2,11.9z"/>
		<path class="st0" d="M55.1,42.1c0.7-2.7,0.8-5.7,3.9-6.9c-2.3-5.7-2.8-11.8-3.3-17.8C55.2,11.5,55,5.7,54.6,0
			c-0.6,11.7,0.1,23.6-3.3,35.3C54.3,36.4,54.4,39.4,55.1,42.1L55.1,42.1z"/>
		<path class="st0" d="M66.2,45.7c0,0.2,0.1,0.5,0.4,0.8c1.7,1.8,2.7,3.9,3,6.4c0,0.2,0.2,0.4,0.3,0.6c3.5-1.5,6.2-7.2,5.1-10
			c-0.4,2.6-1.3,4.8-3.7,6.2c-0.7-1.2-1.2-2.2-1.9-3.2c-0.2-0.3-0.3-0.6-0.3-0.8c0-0.4,0.3-0.7,0.4-0.8c0.6-0.6,4.5-5.2,10-11.6
			c-7.2,6.6-12.4,11.4-13,11.9C66.5,45.2,66.2,45.4,66.2,45.7L66.2,45.7z"/>
		<path class="st0" d="M57.7,42.6c2.5,0,4.7,0.7,6.8,2.1c0.3,0.2,0.6,0.3,0.8,0.2c0.3-0.1,0.5-0.4,0.6-0.5c0.4-0.6,4.4-6.5,9.9-14.6
			c-5.6,6.4-9.5,10.9-10,11.6c-0.1,0.1-0.3,0.5-0.8,0.5c-0.2,0.1-0.5,0-0.9-0.2c-1.1-0.5-2.2-0.9-3.5-1.4c1-2.5,3-3.8,5.6-4.6
			c-2.9-0.6-8.1,2.9-9.1,6.5C57.3,42.5,57.5,42.6,57.7,42.6L57.7,42.6z"/>
		<polygon class="st0" points="72.8,34.9 71.6,38.5 75,36.8 84.3,23.7 		"/>
		<path class="st0" d="M48.5,39.9c-1.2,0.6-2.3,1-3.4,1.6c-0.3,0.2-0.6,0.3-0.9,0.2c-0.4-0.1-0.7-0.4-0.8-0.5
			c-0.5-0.6-4.8-4.9-10.7-10.9c6,7.7,10.4,13.3,10.8,13.9c0.1,0.1,0.3,0.4,0.6,0.4c0.2,0,0.5-0.1,0.8-0.3c1.9-1.5,4.1-2.4,6.6-2.5
			c0.2,0,0.4-0.1,0.6-0.2c-1.2-3.6-6.7-6.7-9.5-5.9C45.2,36.4,47.4,37.5,48.5,39.9L48.5,39.9z"/>
		<path class="st0" d="M38.5,49.8c-2.4-1.2-3.5-3.3-4.1-5.9c-0.8,2.8,2.2,8.3,5.8,9.6c0.1-0.2,0.2-0.4,0.2-0.6
			c0.2-2.5,1.1-4.7,2.6-6.6c0.2-0.3,0.3-0.6,0.3-0.8c0-0.3-0.3-0.5-0.4-0.6c-0.6-0.5-6.1-4.9-13.8-11c5.9,6.1,10.2,10.4,10.8,10.9
			c0.1,0.1,0.4,0.4,0.5,0.8c0,0.3,0,0.5-0.2,0.9C39.5,47.5,39.1,48.6,38.5,49.8L38.5,49.8z"/>
		<polygon class="st0" points="36,35.2 23.6,24.9 33.8,37.3 37.4,38.8 		"/>
	</g>
</g>
</svg>
