<?xml version="1.0" encoding="UTF-8"?><svg id="Layer_2" xmlns="http://www.w3.org/2000/svg" viewBox="0 0 510.75 59"><g id="Layer_1-2"><g><path d="M31.38,21.16c-1.09-2.65-3.02-4.78-5.79-6.39-2.77-1.61-5.67-2.41-8.7-2.41-4.64,0-8.62,1.65-11.93,4.93C1.66,20.58,0,24.52,0,29.11s1.66,8.53,4.97,11.82c3.31,3.29,7.29,4.93,11.93,4.93,3.03,0,5.87-.78,8.52-2.34,2.65-1.56,4.64-3.69,5.96-6.39v7.95h2.27V13.14h-2.27v8.02Zm-4.12,18.35c-2.84,2.91-6.26,4.37-10.26,4.37s-7.45-1.46-10.37-4.37c-2.91-2.91-4.37-6.35-4.37-10.33s1.46-7.44,4.37-10.4c2.91-2.96,6.35-4.44,10.33-4.44s7.4,1.47,10.26,4.4c2.86,2.94,4.3,6.4,4.3,10.4s-1.42,7.46-4.26,10.37Z"/><path d="M66.1,31.74c0,3.27-1.24,6.11-3.73,8.52-2.48,2.41-5.36,3.62-8.63,3.62s-6.05-1.21-8.34-3.62c-2.3-2.41-3.44-5.25-3.44-8.52V13.14h-2.27V31.74c0,3.93,1.35,7.27,4.05,10.01,2.7,2.75,6.03,4.12,10.01,4.12,5.82,0,9.94-2.41,12.35-7.24v6.46h2.27V13.14h-2.27V31.74Z"/><path d="M75.97,33.51V15.19h9.8v-1.99h-9.8V.28h-2.27V33.51c0,3.5,1.18,6.38,3.55,8.63,2.37,2.25,5.23,3.37,8.59,3.37v-1.99c-2.75,0-5.08-.95-6.99-2.84-1.92-1.89-2.88-4.28-2.88-7.17Z"/><path d="M104.9,12.35c-4.66,0-8.65,1.65-11.96,4.93-3.31,3.29-4.97,7.18-4.97,11.68s1.63,8.44,4.9,11.82c3.27,3.38,7.17,5.08,11.72,5.08h.64c4.59,0,8.5-1.68,11.72-5.04,3.22-3.36,4.83-7.3,4.83-11.82s-1.65-8.42-4.93-11.71c-3.29-3.29-7.27-4.93-11.93-4.93Zm10.33,27.16c-2.84,2.91-6.26,4.37-10.26,4.37s-7.45-1.46-10.37-4.37c-2.91-2.91-4.37-6.35-4.37-10.33s1.46-7.44,4.37-10.4c2.91-2.96,6.35-4.44,10.33-4.44s7.4,1.47,10.26,4.4c2.86,2.94,4.3,6.4,4.3,10.4s-1.42,7.46-4.26,10.37Z"/><path d="M16.88,17.6c-3.2,0-5.93,1.13-8.2,3.38-2.27,2.26-3.41,4.92-3.41,8s1.12,5.78,3.36,8.1c2.24,2.32,4.92,3.48,8.03,3.48h.44c3.15,0,5.82-1.15,8.03-3.45,2.21-2.3,3.31-5,3.31-8.1s-1.13-5.77-3.38-8.03c-2.26-2.25-4.98-3.38-8.18-3.38Z"/><path d="M160.32,12.35c-2.89,0-5.34,.69-7.35,2.06-2.01,1.37-3.37,3.19-4.08,5.47-.85-2.22-2.2-4.03-4.05-5.43-1.85-1.4-3.78-2.09-5.79-2.09s-3.95,.52-5.82,1.56c-1.87,1.04-3.28,2.27-4.22,3.69v-4.47h-2.27v31.95h2.27V23.79c0-2.51,.95-4.71,2.84-6.6s4.12-2.84,6.67-2.84,4.73,.94,6.53,2.8c1.8,1.87,2.7,4.08,2.7,6.64v21.3h2.27V23.79c0-2.51,.98-4.71,2.95-6.6,1.96-1.89,4.21-2.84,6.74-2.84s4.7,.91,6.5,2.73c1.8,1.82,2.7,4.11,2.7,6.85v21.16h2.27V23.93c0-3.55-1.09-6.37-3.27-8.45-2.18-2.08-4.71-3.12-7.6-3.12Z"/><path d="M207.53,21.16c-1.09-2.65-3.02-4.78-5.79-6.39-2.77-1.61-5.67-2.41-8.7-2.41-4.64,0-8.62,1.65-11.93,4.93-3.31,3.29-4.97,7.23-4.97,11.82s1.66,8.53,4.97,11.82c3.31,3.29,7.29,4.93,11.93,4.93,3.03,0,5.87-.78,8.52-2.34,2.65-1.56,4.64-3.69,5.96-6.39v7.95h2.27V13.14h-2.27v8.02Zm-4.12,18.35c-2.84,2.91-6.26,4.37-10.26,4.37s-7.45-1.46-10.37-4.37c-2.91-2.91-4.37-6.35-4.37-10.33s1.46-7.44,4.37-10.4c2.91-2.96,6.35-4.44,10.33-4.44s7.4,1.47,10.26,4.4c2.86,2.94,4.29,6.4,4.29,10.4s-1.42,7.46-4.26,10.37Z"/><path d="M218.11,33.51V15.19h9.8v-1.99h-9.8V.28h-2.27V33.51c0,3.5,1.18,6.38,3.55,8.63,2.37,2.25,5.23,3.37,8.59,3.37v-1.99c-2.75,0-5.08-.95-6.99-2.84-1.92-1.89-2.88-4.28-2.88-7.17Z"/><path d="M275.91,12c0-2.89,.96-5.28,2.88-7.17,1.92-1.89,4.25-2.84,6.99-2.84V0c-3.36,0-6.22,1.12-8.59,3.37-2.37,2.25-3.55,5.12-3.55,8.63V44.87h2.27v-12.21h9.94v-1.99h-9.94V12Z"/><path d="M319.36,20.95c-1.09-2.65-3.02-4.78-5.79-6.39-2.77-1.61-5.67-2.41-8.7-2.41-4.64,0-8.62,1.65-11.93,4.93-3.31,3.29-4.97,7.23-4.97,11.82s1.66,8.53,4.97,11.82c3.31,3.29,7.29,4.93,11.93,4.93,3.03,0,5.87-.78,8.52-2.34,2.65-1.56,4.64-3.69,5.96-6.39v7.95h2.27V12.92h-2.27v8.02Zm-4.12,18.35c-2.84,2.91-6.26,4.37-10.26,4.37s-7.45-1.46-10.37-4.37c-2.91-2.91-4.37-6.35-4.37-10.33s1.46-7.44,4.37-10.4c2.91-2.96,6.35-4.44,10.33-4.44s7.4,1.47,10.26,4.4c2.86,2.94,4.3,6.4,4.3,10.4s-1.42,7.46-4.26,10.37Z"/><path d="M331.57,17.22c-3.31,3.29-4.97,7.2-4.97,11.71s1.63,8.46,4.9,11.82c3.27,3.36,7.17,5.04,11.72,5.04h.64c4.88,0,8.97-1.82,12.28-5.47v-3.69c-1.47,2.23-3.33,3.98-5.57,5.25-2.25,1.28-4.6,1.92-7.06,1.92-3.93,0-7.35-1.46-10.26-4.37-2.91-2.91-4.37-6.38-4.37-10.4s1.46-7.49,4.37-10.4c2.91-2.91,6.33-4.37,10.26-4.37,2.46,0,4.82,.64,7.06,1.92,2.25,1.28,4.11,3.01,5.57,5.18v-3.62c-3.41-3.64-7.53-5.47-12.35-5.47s-8.9,1.65-12.21,4.93Z"/><path d="M261.49,21.16c-1.09-2.65-3.02-4.78-5.79-6.39-1.31-.76-2.66-1.34-4.03-1.74,1.23-1.41,1.85-3.06,1.85-4.95,0-2.19-.75-4.04-2.24-5.54-1.49-1.5-3.26-2.25-5.31-2.25-2.05,0-3.84,.74-5.36,2.22-1.52,1.48-2.29,3.25-2.29,5.31v.29c0,2.15,.79,3.96,2.34,5.44-2.04,.82-3.9,2.07-5.6,3.75-3.31,3.29-4.97,7.23-4.97,11.82s1.66,8.53,4.97,11.82c3.31,3.29,7.29,4.93,11.93,4.93,3.03,0,5.87-.78,8.52-2.34,2.65-1.56,4.64-3.69,5.96-6.39v7.95h2.27V13.14h-2.27v8.02Zm-21.39-10.01c-.58-1.02-.87-2.09-.87-3.2,0-1.78,.66-3.33,1.98-4.65,1.32-1.32,2.89-1.98,4.72-1.98,1.82,0,3.4,.66,4.72,1.98,1.32,1.32,1.98,2.87,1.98,4.65,0,1.12-.29,2.18-.87,3.2-.34,.59-.75,1.11-1.22,1.59-1.16-.25-2.33-.38-3.53-.38-1.85,0-3.59,.27-5.23,.8-.68-.57-1.24-1.23-1.68-2Zm17.27,28.36c-2.84,2.91-6.26,4.37-10.26,4.37s-7.45-1.46-10.37-4.37c-2.91-2.91-4.37-6.35-4.37-10.33s1.46-7.44,4.37-10.4c2.91-2.96,6.35-4.44,10.33-4.44s7.4,1.47,10.26,4.4c2.86,2.94,4.29,6.4,4.29,10.4s-1.42,7.46-4.26,10.37Z"/><path d="M361.96,33.3V14.98h9.8v-1.99h-9.8V.07h-2.27V33.3c0,3.5,1.18,6.38,3.55,8.63,2.37,2.25,5.23,3.37,8.59,3.37v-1.99c-2.75,0-5.08-.95-6.99-2.84-1.92-1.89-2.88-4.28-2.88-7.17Z"/><path d="M390.89,12.14c-4.66,0-8.65,1.65-11.96,4.93-3.31,3.29-4.97,7.18-4.97,11.68s1.63,8.44,4.9,11.82c2.03,2.1,4.31,3.55,6.83,4.35-1.62,1.49-2.43,3.33-2.43,5.52v.29c0,2.06,.76,3.83,2.29,5.31,1.52,1.48,3.31,2.22,5.36,2.22,2.05,0,3.82-.75,5.31-2.25,1.49-1.5,2.24-3.35,2.24-5.54,0-2.15-.8-3.99-2.4-5.52,2.56-.79,4.85-2.23,6.87-4.34,3.22-3.36,4.83-7.3,4.83-11.82s-1.64-8.42-4.93-11.71c-3.29-3.29-7.27-4.93-11.93-4.93Zm5.79,35.26c.58,1.02,.87,2.09,.87,3.2,0,1.78-.66,3.33-1.98,4.65-1.32,1.32-2.89,1.98-4.72,1.98-1.82,0-3.4-.66-4.72-1.98-1.32-1.32-1.98-2.87-1.98-4.65,0-1.12,.29-2.18,.87-3.2,.48-.84,1.11-1.56,1.89-2.16,1.17,.26,2.39,.41,3.66,.41h.64c1.26,0,2.47-.14,3.63-.39,.75,.6,1.37,1.31,1.84,2.14Z"/><path d="M418.97,13.7c-1.8,1.04-3.12,2.37-3.98,3.98v-4.76h-2.27v31.95h2.27V23.57c0-2.51,.96-4.71,2.88-6.6,1.92-1.89,4.13-2.84,6.64-2.84s4.8,1.04,6.89,3.12v-2.84c-2.04-1.51-4.17-2.27-6.39-2.27s-4.24,.52-6.04,1.56Z"/><path d="M461.35,31.52c0,3.27-1.2,6.11-3.58,8.52-2.39,2.41-5.22,3.62-8.48,3.62s-6.1-1.21-8.48-3.62c-2.39-2.41-3.59-5.25-3.59-8.52V12.92h-2.27V31.52c0,3.88,1.4,7.21,4.19,9.98,2.79,2.77,6.15,4.15,10.08,4.15,5.77,0,9.82-2.32,12.14-6.96v5.4c0,3.55-1.28,6.59-3.83,9.12-2.56,2.53-5.58,3.8-9.09,3.8-2.37,0-4.63-.67-6.78-2.02-2.15-1.35-3.89-3.16-5.22-5.43l-.14,3.55c2.98,3.93,7.03,5.89,12.14,5.89,4.26,0,7.86-1.47,10.79-4.4,2.93-2.94,4.4-6.51,4.4-10.72V12.92h-2.27V31.52Z"/><path d="M480.33,23.58c-3.09,0-5.59,2.5-5.59,5.59s2.5,5.59,5.59,5.59,5.59-2.5,5.59-5.59-2.5-5.59-5.59-5.59Zm0,10.11c-2.49,0-4.51-2.02-4.51-4.51s2.02-4.51,4.51-4.51,4.51,2.02,4.51,4.51-2.02,4.51-4.51,4.51Z"/><path d="M503.7,40.7c-.21,.29-2.8,3.79-3.72,4.92-.81,.99-1.5,1.64-2.31,2.4-1.38,1.3-2.61,2.2-3.17,2.63-.94,.72-1.94,1.36-2.94,2.05,.06,0,.09,.02,.12,.01,.13-.04,.27-.09,.4-.14,2.08-.85,4.01-1.98,5.71-3.45,.53-.46,1.01-.5,1.58-.25,.27,.12,.54,.25,.79,.42,.61,.41,1.2,.85,1.79,1.28l.04-.06c-.14-.17-.31-.34-.43-.52-.45-.69-.92-1.37-1.31-2.09-.27-.49-.22-.97,.2-1.45,1.36-1.54,2.41-3.29,3.24-5.16,.13-.29,.23-.59,.34-.88-.18,.07-.25,.19-.33,.3Z"/><path d="M498.16,12.03c.81,.76,1.5,1.41,2.31,2.4,.92,1.13,3.5,4.63,3.72,4.92,.08,.11,.15,.23,.33,.3-.11-.29-.21-.59-.34-.88-.83-1.88-1.88-3.63-3.24-5.16-.42-.48-.47-.96-.2-1.45,.39-.72,.86-1.4,1.31-2.09,.12-.19,.29-.35,.43-.52l-.04-.06c-.6,.43-1.19,.86-1.79,1.28-.24,.17-.52,.3-.79,.42-.57,.25-1.06,.21-1.58-.25-1.7-1.47-3.62-2.6-5.71-3.45-.13-.05-.26-.1-.4-.14-.03,0-.06,0-.12,.01,.99,.69,2,1.33,2.94,2.05,.56,.43,1.78,1.33,3.17,2.63Z"/><circle cx="480.33" cy="29.17" r="3.25"/><path d="M501.43,28.78c-3.25-.23-6.51-.42-9.61-1.64-.64,1.69-2.24,1.77-3.69,2.14,1.46,.37,3.05,.43,3.67,1.99,6.25-1.88,12.67-1.58,18.94-2.01-3.06-.15-6.19-.27-9.31-.48Z"/><path d="M480.44,22.34c.31-1.61,.38-3.21,1.97-3.87-1.83-6.04-1.62-12.24-2.03-18.41-.03,.32-.06,.63-.08,.95-.19,3.35-.31,6.7-.57,10.04-.2,2.5-.44,5.01-1.48,7.39,1.78,.64,1.77,2.34,2.19,3.89Z"/><path d="M480.34,36.52c-.37,1.56-.38,3.17-1.99,3.82,1.87,6.09,1.6,12.38,2.01,18.66,.18-3.25,.29-6.42,.54-9.59,.23-3.05,.39-6.13,1.61-9.04-1.73-.64-1.78-2.29-2.16-3.85Z"/><path d="M482.23,21.58c1.33,.15,2.47,.71,3.46,1.58,.16,.14,.29,.2,.41,.19,.18-.02,.3-.17,.34-.21,.26-.31,2.8-3.15,6.31-7.08-3.41,3.01-5.84,5.16-6.15,5.48-.05,.05-.21,.22-.44,.24-.14,.01-.28-.04-.46-.15-.54-.35-1.12-.63-1.75-.97,.69-1.28,1.87-1.79,3.28-2.04-1.5-.54-4.52,.95-5.31,2.82,.11,.05,.21,.12,.32,.14Z"/><path d="M486.55,23.85c-.02,.12,.02,.26,.14,.43,.75,1.08,1.17,2.28,1.17,3.62,0,.11,.06,.22,.1,.34,1.95-.56,3.78-3.39,3.43-4.94-.41,1.36-1.06,2.48-2.41,3.01-.27-.67-.48-1.28-.76-1.85-.09-.19-.12-.34-.09-.47,.05-.23,.24-.37,.29-.41,.35-.27,2.77-2.43,6.17-5.46-4.31,3.02-7.43,5.21-7.77,5.43-.05,.03-.21,.14-.25,.32Z"/><polygon points="490.81 18.55 489.91 20.43 491.88 19.77 497.8 13.49 490.81 18.55"/><path d="M487.07,35.53c.33,.23,3.37,2.53,7.56,5.71-3.28-3.16-5.62-5.4-5.96-5.69-.05-.04-.23-.19-.27-.42-.02-.14,.01-.29,.11-.47,.3-.56,.53-1.17,.83-1.82,1.33,.59,1.94,1.72,2.3,3.1,.41-1.54-1.31-4.43-3.24-5.07-.04,.11-.11,.22-.11,.33-.04,1.33-.51,2.52-1.3,3.57-.13,.17-.17,.3-.15,.43,.03,.18,.19,.29,.24,.32Z"/><path d="M484.11,38.3c.65-.32,1.24-.58,1.79-.91,.18-.11,.33-.15,.46-.13,.23,.03,.39,.21,.43,.26,.3,.33,2.65,2.57,5.94,5.7-3.36-4.05-5.79-6.99-6.04-7.3-.04-.05-.15-.2-.34-.22-.12-.01-.26,.04-.42,.17-1.02,.84-2.18,1.36-3.51,1.45-.11,0-.22,.08-.33,.12,.72,1.9,3.68,3.5,5.2,3.02-1.39-.3-2.56-.86-3.2-2.16Z"/><polygon points="497.6 46.08 491.99 39.52 490.05 38.77 490.86 40.68 497.6 46.08"/><path d="M474.8,21.63c-.23-.02-.39-.19-.44-.24-.31-.32-2.74-2.47-6.15-5.48,3.51,3.93,6.05,6.77,6.31,7.08,.04,.05,.16,.2,.34,.21,.12,.01,.26-.05,.41-.19,.98-.88,2.13-1.44,3.46-1.58,.11-.01,.22-.09,.32-.14-.79-1.87-3.81-3.36-5.31-2.82,1.4,.24,2.59,.76,3.28,2.04-.63,.35-1.21,.62-1.75,.97-.18,.11-.32,.16-.46,.15Z"/><path d="M478.52,37.18c-1.33-.1-2.5-.62-3.51-1.45-.16-.13-.3-.19-.42-.17-.18,.02-.3,.18-.34,.22-.25,.32-2.68,3.25-6.04,7.3,3.3-3.14,5.65-5.38,5.94-5.7,.05-.05,.2-.23,.43-.26,.14-.02,.29,.02,.46,.13,.55,.33,1.14,.58,1.79,.91-.64,1.3-1.81,1.86-3.2,2.16,1.52,.48,4.48-1.12,5.2-3.02-.11-.04-.22-.12-.33-.12Z"/></g></g></svg>