<?xml version="1.0" encoding="UTF-8"?><svg id="Layer_2" xmlns="http://www.w3.org/2000/svg" viewBox="0 0 356.97 117.37"><defs><style>.cls-1{fill:#fff;}</style></defs><g id="Layer_1-2"><g><path class="cls-1" d="M31.38,22.63c-1.09-2.65-3.02-4.78-5.79-6.39-2.77-1.61-5.67-2.41-8.7-2.41-4.64,0-8.62,1.65-11.93,4.93C1.66,22.05,0,25.99,0,30.58s1.66,8.53,4.97,11.82c3.31,3.29,7.29,4.93,11.93,4.93,3.03,0,5.87-.78,8.52-2.34,2.65-1.56,4.64-3.69,5.96-6.39v7.95h2.27V14.61h-2.27v8.02Zm-4.12,18.35c-2.84,2.91-6.26,4.37-10.26,4.37s-7.45-1.46-10.37-4.37c-2.91-2.91-4.37-6.35-4.37-10.33s1.46-7.44,4.37-10.4c2.91-2.96,6.35-4.44,10.33-4.44s7.4,1.47,10.26,4.4c2.86,2.94,4.3,6.4,4.3,10.4s-1.42,7.46-4.26,10.37Z"/><path class="cls-1" d="M16.88,19.07c-3.2,0-5.93,1.13-8.2,3.38-2.27,2.26-3.41,4.92-3.41,8s1.12,5.78,3.36,8.1c2.24,2.32,4.92,3.48,8.03,3.48h.44c3.15,0,5.82-1.15,8.03-3.45,2.21-2.3,3.31-5,3.31-8.1s-1.13-5.77-3.38-8.03c-2.26-2.25-4.98-3.38-8.18-3.38Z"/><path class="cls-1" d="M66.1,33.21c0,3.27-1.24,6.11-3.73,8.52-2.48,2.41-5.36,3.62-8.63,3.62s-6.05-1.21-8.34-3.62c-2.3-2.41-3.44-5.25-3.44-8.52V14.61h-2.27v18.6c0,3.93,1.35,7.27,4.05,10.01,2.7,2.75,6.03,4.12,10.01,4.12,5.82,0,9.94-2.41,12.35-7.24v6.46h2.27V14.61h-2.27v18.6Z"/><path class="cls-1" d="M85.84,46.98v-1.99c-2.75,0-5.08-.95-6.99-2.84-1.92-1.89-2.88-4.28-2.88-7.17V16.67h9.8v-1.99h-9.8V1.76h-2.27V34.98c0,3.5,1.18,6.38,3.55,8.63,2.37,2.25,5.23,3.37,8.59,3.37Z"/><path class="cls-1" d="M104.58,47.34h.64c4.59,0,8.5-1.68,11.72-5.04,3.22-3.36,4.83-7.3,4.83-11.82s-1.65-8.42-4.93-11.71c-3.29-3.29-7.27-4.93-11.93-4.93s-8.65,1.65-11.96,4.93c-3.31,3.29-4.97,7.18-4.97,11.68s1.63,8.44,4.9,11.82c3.27,3.38,7.17,5.08,11.72,5.08Zm-9.98-27.09c2.91-2.96,6.35-4.44,10.33-4.44s7.4,1.47,10.26,4.4c2.86,2.94,4.3,6.4,4.3,10.4s-1.42,7.46-4.26,10.37c-2.84,2.91-6.26,4.37-10.26,4.37s-7.45-1.46-10.37-4.37c-2.91-2.91-4.37-6.35-4.37-10.33s1.46-7.44,4.37-10.4Z"/><path class="cls-1" d="M168.91,25.4v21.16h2.27V25.4c0-3.55-1.09-6.37-3.27-8.45-2.18-2.08-4.71-3.12-7.6-3.12s-5.34,.69-7.35,2.06c-2.01,1.37-3.37,3.19-4.08,5.47-.85-2.22-2.2-4.03-4.05-5.43-1.85-1.4-3.78-2.09-5.79-2.09s-3.95,.52-5.82,1.56c-1.87,1.04-3.28,2.27-4.22,3.69v-4.47h-2.27v31.95h2.27V25.26c0-2.51,.95-4.71,2.84-6.6s4.12-2.84,6.67-2.84,4.73,.94,6.53,2.8c1.8,1.87,2.7,4.08,2.7,6.64v21.3h2.27V25.26c0-2.51,.98-4.71,2.95-6.6,1.96-1.89,4.21-2.84,6.74-2.84s4.7,.91,6.5,2.73c1.8,1.82,2.7,4.11,2.7,6.85Z"/><path class="cls-1" d="M207.53,22.63c-1.09-2.65-3.02-4.78-5.79-6.39-2.77-1.61-5.67-2.41-8.7-2.41-4.64,0-8.62,1.65-11.93,4.93-3.31,3.29-4.97,7.23-4.97,11.82s1.66,8.53,4.97,11.82c3.31,3.29,7.29,4.93,11.93,4.93,3.03,0,5.87-.78,8.52-2.34,2.65-1.56,4.64-3.69,5.96-6.39v7.95h2.27V14.61h-2.27v8.02Zm-4.12,18.35c-2.84,2.91-6.26,4.37-10.26,4.37s-7.45-1.46-10.37-4.37c-2.91-2.91-4.37-6.35-4.37-10.33s1.46-7.44,4.37-10.4c2.91-2.96,6.35-4.44,10.33-4.44s7.4,1.47,10.26,4.4c2.86,2.94,4.29,6.4,4.29,10.4s-1.42,7.46-4.26,10.37Z"/><path class="cls-1" d="M227.98,46.98v-1.99c-2.75,0-5.08-.95-6.99-2.84-1.92-1.89-2.88-4.28-2.88-7.17V16.67h9.8v-1.99h-9.8V1.76h-2.27V34.98c0,3.5,1.18,6.38,3.55,8.63,2.37,2.25,5.23,3.37,8.59,3.37Z"/><path class="cls-1" d="M255.52,44.99c2.65-1.56,4.64-3.69,5.96-6.39v7.95h2.27V14.61h-2.27v8.02c-1.09-2.65-3.02-4.78-5.79-6.39-1.31-.76-2.66-1.34-4.03-1.74,1.23-1.41,1.85-3.06,1.85-4.95,0-2.19-.75-4.04-2.24-5.54-1.49-1.5-3.26-2.25-5.31-2.25-2.05,0-3.84,.74-5.36,2.22-1.52,1.48-2.29,3.25-2.29,5.31v.29c0,2.15,.79,3.96,2.34,5.44-2.04,.82-3.9,2.07-5.6,3.75-3.31,3.29-4.97,7.23-4.97,11.82s1.66,8.53,4.97,11.82c3.31,3.29,7.29,4.93,11.93,4.93,3.03,0,5.87-.78,8.52-2.34Zm-15.43-32.37c-.58-1.02-.87-2.09-.87-3.2,0-1.78,.66-3.33,1.98-4.65,1.32-1.32,2.89-1.98,4.72-1.98,1.82,0,3.4,.66,4.72,1.98,1.32,1.32,1.98,2.87,1.98,4.65,0,1.12-.29,2.18-.87,3.2-.34,.59-.75,1.11-1.22,1.59-1.16-.25-2.33-.38-3.53-.38-1.85,0-3.59,.27-5.23,.8-.68-.57-1.24-1.23-1.68-2Zm-7.72,18.03c0-3.98,1.46-7.44,4.37-10.4,2.91-2.96,6.35-4.44,10.33-4.44s7.4,1.47,10.26,4.4c2.86,2.94,4.29,6.4,4.29,10.4s-1.42,7.46-4.26,10.37c-2.84,2.91-6.26,4.37-10.26,4.37s-7.45-1.46-10.37-4.37c-2.91-2.91-4.37-6.35-4.37-10.33Z"/><path class="cls-1" d="M76.75,68.68c0-2.89,.96-5.28,2.88-7.17,1.92-1.89,4.25-2.84,6.99-2.84v-1.99c-3.36,0-6.22,1.12-8.59,3.37-2.37,2.25-3.55,5.12-3.55,8.63v32.87h2.27v-12.21h9.94v-1.99h-9.94v-18.67Z"/><path class="cls-1" d="M120.2,77.63c-1.09-2.65-3.02-4.78-5.79-6.39-2.77-1.61-5.67-2.41-8.7-2.41-4.64,0-8.62,1.65-11.93,4.93-3.31,3.29-4.97,7.23-4.97,11.82s1.66,8.53,4.97,11.82c3.31,3.29,7.29,4.93,11.93,4.93,3.03,0,5.87-.78,8.52-2.34,2.65-1.56,4.64-3.69,5.96-6.39v7.95h2.27v-31.95h-2.27v8.02Zm-4.12,18.35c-2.84,2.91-6.26,4.37-10.26,4.37s-7.45-1.46-10.37-4.37c-2.91-2.91-4.37-6.35-4.37-10.33s1.46-7.44,4.37-10.4c2.91-2.96,6.35-4.44,10.33-4.44s7.4,1.47,10.26,4.4c2.86,2.94,4.3,6.4,4.3,10.4s-1.42,7.46-4.26,10.37Z"/><path class="cls-1" d="M132.41,73.9c-3.31,3.29-4.97,7.2-4.97,11.71s1.63,8.46,4.9,11.82c3.27,3.36,7.17,5.04,11.72,5.04h.64c4.88,0,8.97-1.82,12.28-5.47v-3.69c-1.47,2.23-3.33,3.98-5.57,5.25-2.25,1.28-4.6,1.92-7.06,1.92-3.93,0-7.35-1.46-10.26-4.37-2.91-2.91-4.37-6.38-4.37-10.4s1.46-7.49,4.37-10.4c2.91-2.91,6.33-4.37,10.26-4.37,2.46,0,4.82,.64,7.06,1.92,2.25,1.28,4.11,3.01,5.57,5.18v-3.62c-3.41-3.64-7.53-5.47-12.35-5.47s-8.9,1.65-12.21,4.93Z"/><path class="cls-1" d="M162.8,89.98v-18.32h9.8v-1.99h-9.8v-12.92h-2.27v33.23c0,3.5,1.18,6.38,3.55,8.63,2.37,2.25,5.23,3.37,8.59,3.37v-1.99c-2.75,0-5.08-.95-6.99-2.84-1.92-1.89-2.88-4.28-2.88-7.17Z"/><path class="cls-1" d="M191.73,68.83c-4.66,0-8.65,1.65-11.96,4.93-3.31,3.29-4.97,7.18-4.97,11.68s1.63,8.44,4.9,11.82c2.03,2.1,4.31,3.55,6.83,4.35-1.62,1.49-2.43,3.33-2.43,5.52v.29c0,2.06,.76,3.83,2.29,5.31,1.52,1.48,3.31,2.22,5.36,2.22,2.05,0,3.82-.75,5.31-2.25,1.49-1.5,2.24-3.35,2.24-5.54,0-2.15-.8-3.99-2.4-5.52,2.56-.79,4.85-2.23,6.87-4.34,3.22-3.36,4.83-7.3,4.83-11.82s-1.64-8.42-4.93-11.71c-3.29-3.29-7.27-4.93-11.93-4.93Zm5.79,35.26c.58,1.02,.87,2.09,.87,3.2,0,1.78-.66,3.33-1.98,4.65-1.32,1.32-2.89,1.98-4.72,1.98-1.82,0-3.4-.66-4.72-1.98-1.32-1.32-1.98-2.87-1.98-4.65,0-1.12,.29-2.18,.87-3.2,.48-.84,1.11-1.56,1.89-2.16,1.17,.26,2.39,.41,3.66,.41h.64c1.26,0,2.47-.14,3.63-.39,.75,.6,1.37,1.31,1.84,2.14Z"/><path class="cls-1" d="M219.81,70.39c-1.8,1.04-3.12,2.37-3.98,3.98v-4.76h-2.27v31.95h2.27v-21.3c0-2.51,.96-4.71,2.88-6.6,1.92-1.89,4.13-2.84,6.64-2.84s4.8,1.04,6.89,3.12v-2.84c-2.04-1.51-4.17-2.27-6.39-2.27s-4.24,.52-6.04,1.56Z"/><path class="cls-1" d="M262.2,88.21c0,3.27-1.2,6.11-3.58,8.52-2.39,2.41-5.22,3.62-8.48,3.62s-6.1-1.21-8.48-3.62c-2.39-2.41-3.59-5.25-3.59-8.52v-18.6h-2.27v18.6c0,3.88,1.4,7.21,4.19,9.98,2.79,2.77,6.15,4.15,10.08,4.15,5.77,0,9.82-2.32,12.14-6.96v5.4c0,3.55-1.28,6.59-3.83,9.12-2.56,2.53-5.58,3.8-9.09,3.8-2.37,0-4.63-.67-6.78-2.02-2.15-1.35-3.89-3.16-5.22-5.43l-.14,3.55c2.98,3.93,7.03,5.89,12.14,5.89,4.26,0,7.86-1.47,10.79-4.4,2.93-2.94,4.4-6.51,4.4-10.72v-30.96h-2.27v18.6Z"/><path class="cls-1" d="M296.41,46.83c-6.15,0-11.14,4.99-11.14,11.14s4.99,11.14,11.14,11.14,11.14-4.99,11.14-11.14-4.99-11.14-11.14-11.14Zm0,20.13c-4.96,0-8.99-4.02-8.99-8.99s4.02-8.99,8.99-8.99,8.99,4.02,8.99,8.99-4.02,8.99-8.99,8.99Z"/><path class="cls-1" d="M342.94,80.92c-.43,.57-5.57,7.54-7.4,9.79-1.61,1.97-2.98,3.26-4.6,4.78-2.76,2.58-5.2,4.37-6.3,5.23-1.87,1.44-3.87,2.71-5.85,4.08,.12,.02,.19,.05,.24,.03,.27-.08,.53-.17,.79-.28,4.15-1.69,7.98-3.94,11.37-6.87,1.05-.91,2.01-1,3.15-.49,.54,.24,1.08,.5,1.57,.84,1.21,.82,2.38,1.69,3.57,2.55l.07-.11c-.29-.35-.61-.67-.86-1.04-.89-1.37-1.83-2.73-2.61-4.17-.53-.98-.44-1.94,.4-2.88,2.71-3.06,4.8-6.54,6.45-10.29,.25-.57,.45-1.17,.67-1.75-.36,.14-.5,.37-.67,.59Z"/><path class="cls-1" d="M331.92,23.83c1.62,1.52,2.99,2.8,4.6,4.78,1.84,2.25,6.98,9.22,7.4,9.79,.16,.22,.3,.45,.67,.59-.22-.58-.42-1.18-.67-1.75-1.65-3.74-3.73-7.22-6.45-10.29-.84-.95-.93-1.9-.4-2.88,.78-1.44,1.72-2.79,2.61-4.17,.24-.38,.57-.7,.86-1.04l-.07-.11c-1.19,.85-2.36,1.72-3.57,2.55-.49,.33-1.03,.6-1.57,.84-1.14,.5-2.1,.42-3.15-.49-3.39-2.93-7.22-5.18-11.37-6.87-.26-.11-.53-.19-.79-.28-.06-.02-.13,.01-.24,.03,1.98,1.37,3.98,2.64,5.85,4.08,1.11,.86,3.55,2.65,6.3,5.23Z"/><circle class="cls-1" cx="296.41" cy="57.97" r="6.47" transform="translate(45.82 226.57) rotate(-45)"/><path class="cls-1" d="M338.43,57.18c-6.47-.45-12.97-.84-19.14-3.27-1.27,3.37-4.46,3.52-7.34,4.27,2.91,.73,6.07,.85,7.3,3.97,12.45-3.74,25.24-3.15,37.72-4.01-6.08-.31-12.32-.53-18.54-.96Z"/><path class="cls-1" d="M296.63,44.36c.61-3.21,.76-6.39,3.93-7.71-3.64-12.02-3.23-24.37-4.03-36.66-.06,.63-.13,1.26-.16,1.89-.37,6.67-.62,13.35-1.14,20-.39,4.98-.88,9.98-2.95,14.72,3.54,1.27,3.52,4.66,4.35,7.75Z"/><path class="cls-1" d="M296.42,72.6c-.74,3.1-.76,6.32-3.97,7.61,3.72,12.13,3.18,24.65,4,37.17,.35-6.47,.59-12.79,1.07-19.1,.46-6.08,.78-12.21,3.21-18-3.45-1.28-3.54-4.57-4.31-7.67Z"/><path class="cls-1" d="M300.18,42.84c2.64,.3,4.92,1.41,6.88,3.15,.31,.28,.58,.39,.82,.37,.36-.03,.61-.33,.68-.42,.51-.61,5.57-6.27,12.56-14.09-6.79,6-11.63,10.28-12.25,10.91-.09,.1-.41,.43-.88,.48-.28,.02-.57-.07-.92-.3-1.07-.69-2.23-1.25-3.49-1.94,1.38-2.55,3.73-3.57,6.53-4.06-2.99-1.07-9.01,1.89-10.58,5.62,.21,.09,.42,.25,.64,.27Z"/><path class="cls-1" d="M308.78,47.37c-.05,.24,.04,.52,.27,.86,1.5,2.15,2.34,4.55,2.32,7.21,0,.22,.13,.45,.19,.67,3.89-1.12,7.53-6.75,6.83-9.85-.81,2.72-2.11,4.93-4.8,6-.54-1.33-.95-2.55-1.51-3.69-.18-.37-.24-.67-.19-.94,.1-.46,.47-.73,.58-.81,.7-.54,5.53-4.84,12.28-10.88-8.59,6.02-14.8,10.37-15.47,10.81-.1,.07-.43,.27-.5,.63Z"/><polygon class="cls-1" points="317.28 36.82 315.48 40.55 319.41 39.24 331.2 26.74 317.28 36.82"/><path class="cls-1" d="M309.82,70.63c.65,.46,6.7,5.05,15.06,11.38-6.53-6.29-11.19-10.76-11.87-11.33-.1-.09-.47-.38-.55-.83-.05-.27,.02-.57,.22-.94,.6-1.12,1.06-2.32,1.65-3.63,2.65,1.17,3.86,3.43,4.57,6.18,.82-3.07-2.61-8.83-6.45-10.09-.08,.22-.21,.44-.22,.66-.08,2.66-1.01,5.02-2.59,7.11-.25,.33-.35,.61-.31,.85,.06,.36,.38,.58,.48,.65Z"/><path class="cls-1" d="M303.93,76.15c1.28-.64,2.46-1.15,3.56-1.81,.36-.21,.65-.3,.93-.26,.46,.06,.77,.41,.86,.51,.59,.65,5.27,5.12,11.84,11.36-6.69-8.07-11.54-13.92-12.03-14.55-.07-.09-.31-.4-.67-.45-.25-.03-.51,.08-.84,.34-2.02,1.67-4.34,2.7-6.99,2.9-.22,.02-.44,.16-.65,.25,1.43,3.78,7.34,6.96,10.37,6.01-2.77-.59-5.09-1.7-6.37-4.3Z"/><polygon class="cls-1" points="330.79 91.63 319.62 78.58 315.75 77.08 317.38 80.89 330.79 91.63"/><path class="cls-1" d="M285.39,42.95c-.46-.04-.78-.38-.88-.48-.62-.63-5.46-4.92-12.25-10.91,6.98,7.82,12.04,13.48,12.56,14.09,.08,.09,.32,.39,.68,.42,.25,.02,.51-.1,.82-.37,1.96-1.74,4.24-2.86,6.88-3.15,.22-.02,.43-.18,.64-.27-1.57-3.73-7.59-6.68-10.58-5.62,2.79,.49,5.15,1.51,6.53,4.06-1.26,.69-2.42,1.24-3.49,1.94-.35,.23-.64,.32-.92,.3Z"/><path class="cls-1" d="M292.8,73.91c-2.65-.2-4.97-1.23-6.99-2.9-.32-.27-.59-.37-.84-.34-.36,.04-.59,.35-.67,.45-.49,.63-5.34,6.47-12.03,14.55,6.57-6.24,11.24-10.71,11.84-11.36,.09-.1,.4-.45,.86-.51,.27-.04,.57,.05,.93,.26,1.09,.65,2.27,1.16,3.56,1.81-1.28,2.6-3.6,3.71-6.37,4.3,3.03,.95,8.93-2.22,10.37-6.01-.22-.08-.43-.23-.65-.25Z"/></g></g></svg>