<svg xmlns:dc="http://purl.org/dc/elements/1.1/" xmlns:cc="http://creativecommons.org/ns#" xmlns:rdf="http://www.w3.org/1999/02/22-rdf-syntax-ns#" xmlns:svg="http://www.w3.org/2000/svg" xmlns="http://www.w3.org/2000/svg" viewBox="0 0 1200 880" height="880" width="1200" xml:space="preserve" id="svg2"><metadata></metadata><defs id="defs6"><clipPath id="clipPath18"><path id="path16" d="M 0,660 H 900 V 0 H 0 Z"></path></clipPath><clipPath id="clipPath74"><path id="path72" d="M 126.885,456.187 H 289.758 V 393.476 H 126.885 Z"></path></clipPath><clipPath id="clipPath90"><path id="path88" d="M 126.885,447.845 H 289.758 V 393.474 H 126.885 Z"></path></clipPath><clipPath id="clipPath204"><path id="path202" d="M 284.003,221.608 H 396.319 V 97.9265 H 284.003 Z"></path></clipPath><clipPath id="clipPath224"><path id="path222" d="m 535.328,115.376 h 65.56 V 43.1809 h -65.56 z"></path></clipPath><clipPath id="clipPath440"><path id="path438" d="m 688.13,474.777 h 25.342 V 439.295 H 688.13 Z"></path></clipPath><clipPath id="clipPath548"><path id="path546" d="m 765.974,475.165 h 93.101 V 350.213 h -93.101 z"></path></clipPath></defs><g transform="matrix(1.3333333,0,0,-1.3333333,0,880)" id="g10"><g id="g12"><g clip-path="url(#clipPath18)" id="g14"><g transform="translate(221.8481,155.9854)" id="g20"><path id="path22" style="fill:#b6d5d0;fill-opacity:1;fill-rule:nonzero;stroke:none" d="M 0,0 V 39.22 C 0,51.443 -8.999,61.353 -20.099,61.353 H -45.512 V -125.166 H -12.937 0 40.198 v 80.9 c 0,12.224 -8.998,22.133 -20.099,22.133 C 8.999,-22.133 0,-12.224 0,0"></path></g><g transform="translate(440.2793,77.4717)" id="g24"><path id="path26" style="fill:#e9928b;fill-opacity:1;fill-rule:nonzero;stroke:none" d="m 0,0 -16.218,-17.439 -5.454,8.929 -8.705,14.257 20.854,10.67 5.69,-9.815 z"></path></g><g transform="translate(436.4468,84.0732)" id="g28"><path id="path30" style="fill:#de6667;fill-opacity:1;fill-rule:nonzero;stroke:none" d="M 0,0 C -8.366,-4.693 -14.784,-11.502 -17.84,-15.111 L -26.545,-0.854 -5.69,9.815 Z"></path></g><path id="path32" style="fill:#edf6f5;fill-opacity:1;fill-rule:nonzero;stroke:none" d="M 488.128,403.016 H 143.865 v 197.672 h 344.263 z"></path><path id="path34" style="fill:#dceceb;fill-opacity:1;fill-rule:nonzero;stroke:none" d="m 218.198,526.611 h -55.446 v 56.314 h 55.446 z"></path><g transform="translate(453.9463,531.9434)" id="g36"><path id="path38" style="fill:#b6d5d0;fill-opacity:1;fill-rule:nonzero;stroke:none" d="M 0,0 H -2.079 V 3.435 H -5.198 V 5.724 H 0 Z"></path></g><path id="path40" style="fill:#b6d5d0;fill-opacity:1;fill-rule:nonzero;stroke:none" d="m 304.168,535.378 h -8.504 v 2.29 h 8.504 z m 17.009,0 h -8.504 v 2.29 h 8.504 z m 17.01,0 h -8.505 v 2.29 h 8.505 z m 17.01,0 h -8.505 v 2.29 h 8.505 z m 17.01,0 h -8.505 v 2.29 h 8.505 z m 17.009,0 h -8.505 v 2.29 h 8.505 z m 17.009,0 h -8.505 v 2.29 h 8.505 z m 17.01,0 h -8.505 v 2.29 h 8.505 z m 17.009,0 h -8.505 v 2.29 h 8.505 z"></path><g transform="translate(284.0396,531.9434)" id="g42"><path id="path44" style="fill:#b6d5d0;fill-opacity:1;fill-rule:nonzero;stroke:none" d="M 0,0 H -2.079 V 5.724 H 3.119 V 3.435 H 0 Z"></path></g><path id="path46" style="fill:#b6d5d0;fill-opacity:1;fill-rule:nonzero;stroke:none" d="m 284.04,513.236 h -2.079 v 9.354 h 2.079 z m 0,-18.707 h -2.079 v 9.354 h 2.079 z m 0,-18.707 h -2.079 v 9.354 h 2.079 z m 0,-18.707 h -2.079 v 9.354 h 2.079 z m 0,-18.707 h -2.079 v 9.354 h 2.079 z"></path><g transform="translate(287.1587,423.3311)" id="g48"><path id="path50" style="fill:#b6d5d0;fill-opacity:1;fill-rule:nonzero;stroke:none" d="m 0,0 h -5.198 v 5.724 h 2.079 V 2.29 H 0 Z"></path></g><path id="path52" style="fill:#b6d5d0;fill-opacity:1;fill-rule:nonzero;stroke:none" d="m 304.168,423.331 h -8.505 v 2.29 h 8.505 z m 17.01,0 h -8.505 v 2.29 h 8.505 z m 17.009,0 h -8.505 v 2.29 h 8.505 z m 17.01,0 h -8.505 v 2.29 h 8.505 z m 17.01,0 h -8.505 v 2.29 h 8.505 z m 17.009,0 h -8.505 v 2.29 h 8.505 z m 17.009,0 h -8.505 v 2.29 h 8.505 z m 17.01,0 h -8.504 v 2.29 h 8.504 z m 17.009,0 h -8.504 v 2.29 h 8.504 z"></path><g transform="translate(453.9463,423.3311)" id="g54"><path id="path56" style="fill:#b6d5d0;fill-opacity:1;fill-rule:nonzero;stroke:none" d="m 0,0 h -5.198 v 2.29 h 3.119 V 5.724 H 0 Z"></path></g><path id="path58" style="fill:#b6d5d0;fill-opacity:1;fill-rule:nonzero;stroke:none" d="m 453.946,513.236 h -2.079 v 9.354 h 2.079 z m 0,-18.707 h -2.079 v 9.354 h 2.079 z m 0,-18.707 h -2.079 v 9.354 h 2.079 z m 0,-18.707 h -2.079 v 9.354 h 2.079 z m 0,-18.707 h -2.079 v 9.354 h 2.079 z"></path><g transform="translate(293.4331,392.3311)" id="g60"><path id="path62" style="fill:#b2e5e0;fill-opacity:1;fill-rule:nonzero;stroke:none" d="m 0,0 h -181.313 c -2.844,0 -5.149,2.539 -5.149,5.67 v 98.054 c 0,3.131 2.305,5.67 5.149,5.67 H 0 c 2.844,0 5.149,-2.539 5.149,-5.67 V 5.67 C 5.149,2.539 2.844,0 0,0"></path></g><g transform="translate(299.6709,385.4624)" id="g64"><path id="path66" style="fill:#3fb8a9;fill-opacity:1;fill-rule:nonzero;stroke:none" d="m 0,0 h -181.313 c -2.844,0 -5.149,2.539 -5.149,5.67 v 98.053 c 0,3.132 2.305,5.671 5.149,5.671 H 0 c 2.844,0 5.149,-2.539 5.149,-5.671 V 5.67 C 5.149,2.539 2.844,0 0,0"></path></g><g id="g68"><g id="g70"></g><g id="g82"><g style="opacity:0.66999799" id="g80" clip-path="url(#clipPath74)"><g id="g78" transform="translate(126.8848,393.4761)"><path id="path76" style="fill:#ffffff;fill-opacity:1;fill-rule:nonzero;stroke:none" d="m 0,0 h 162.873 c 0,0 -5.429,41.849 -13.977,54.569 C 140.348,67.29 133.186,49.736 123.714,28.875 114.242,8.014 94.605,-1.399 80.281,19.462 65.958,40.323 59.489,46.938 43.548,35.744 27.607,24.55 15.132,33.963 9.819,48.464 4.505,62.965 0,62.71 0,62.71 Z"></path></g></g></g></g><g id="g84"><g id="g86"></g><g id="g98"><g style="opacity:0.27999902" id="g96" clip-path="url(#clipPath90)"><g id="g94" transform="translate(126.8848,393.4761)"><path id="path92" style="fill:#ffffff;fill-opacity:1;fill-rule:nonzero;stroke:none" d="m 0,0 c 0,0 7.508,-0.382 13.515,8.777 6.006,9.159 7.624,23.151 14.092,27.475 6.469,4.325 12.476,-0.002 21.486,-18.127 9.01,-18.125 23.102,-9.603 29.109,8.46 6.006,18.063 8.779,26.712 18.713,27.73 9.934,1.018 16.172,-12.466 19.637,-25.44 3.466,-12.975 12.475,-17.3 21.486,-11.957 C 147.047,22.26 162.873,0 162.873,0 Z"></path></g></g></g></g><g transform="translate(130.0039,479.083)" id="g100"><path id="path102" style="fill:#ffffff;fill-opacity:1;fill-rule:nonzero;stroke:none" d="m 0,0 v 0 c -1.723,0 -3.119,1.538 -3.119,3.434 0,1.897 1.396,3.435 3.119,3.435 1.722,0 3.119,-1.538 3.119,-3.435 C 3.119,1.538 1.722,0 0,0"></path></g><path id="path104" style="fill:#ffffff;fill-opacity:1;fill-rule:nonzero;stroke:none" d="m 206.242,480.482 h -65.38 v 4.071 h 65.38 z"></path><g transform="translate(130.0039,466.6807)" id="g106"><path id="path108" style="fill:#ffffff;fill-opacity:1;fill-rule:nonzero;stroke:none" d="m 0,0 v 0 c -1.723,0 -3.119,1.538 -3.119,3.435 0,1.896 1.396,3.434 3.119,3.434 1.722,0 3.119,-1.538 3.119,-3.434 C 3.119,1.538 1.722,0 0,0"></path></g><path id="path110" style="fill:#ffffff;fill-opacity:1;fill-rule:nonzero;stroke:none" d="m 191.225,468.08 h -50.363 v 4.07 h 50.363 z"></path><path id="path112" style="fill:#ffffff;fill-opacity:1;fill-rule:nonzero;stroke:none" d="m 224.695,520.836 h -55.446 v 56.313 h 55.446 z"></path><g transform="translate(218.1978,552.2368)" id="g114"><path id="path116" style="fill:#ffab40;fill-opacity:1;fill-rule:nonzero;stroke:none" d="M 0,0 -20.157,-10.049 -40.314,0 V -15.01 H 0 Z"></path></g><g transform="translate(218.1978,559.0103)" id="g118"><path id="path120" style="fill:#ffab40;fill-opacity:1;fill-rule:nonzero;stroke:none" d="M 0,0 H -40.314 V -4.007 L -20.157,-13.833 0,-4.007 Z"></path></g><path id="path122" style="fill:#ffffff;fill-opacity:1;fill-rule:nonzero;stroke:none" d="m 281.159,541.793 h 110.142 v 4.208 H 281.159 Z M 391.994,541.03 H 280.467 v 5.734 h 111.527 z"></path><path id="path124" style="fill:#ffffff;fill-opacity:1;fill-rule:nonzero;stroke:none" d="m 281.159,565.453 h 110.142 v 4.208 H 281.159 Z M 391.994,564.69 H 280.467 v 5.734 h 111.527 z"></path><path id="path126" style="fill:#ffffff;fill-opacity:1;fill-rule:nonzero;stroke:none" d="m 281.159,589.112 h 110.142 v 4.208 H 281.159 Z m 110.835,-0.763 H 280.467 v 5.734 h 111.527 z"></path><path id="path128" style="fill:#dceceb;fill-opacity:1;fill-rule:nonzero;stroke:none" d="m 564.659,465.508 h -42.318 v 34.324 h 42.318 z"></path><g transform="translate(536.0127,474.1963)" id="g130"><path id="path132" style="fill:#ffffff;fill-opacity:1;fill-rule:nonzero;stroke:none" d="m 0,0 -9.203,7.642 c -0.228,0.189 -0.361,0.483 -0.362,0.796 -0.001,0.314 0.13,0.61 0.357,0.8 L -0.062,16.942 1.044,15.351 -7.15,8.448 1.096,1.6 Z"></path></g><g transform="translate(550.9873,474.1963)" id="g134"><path id="path136" style="fill:#ffffff;fill-opacity:1;fill-rule:nonzero;stroke:none" d="M 0,0 -1.096,1.6 7.15,8.448 -1.044,15.351 0.062,16.942 9.208,9.238 C 9.435,9.048 9.566,8.752 9.565,8.438 9.564,8.125 9.43,7.831 9.203,7.642 Z"></path></g><g transform="translate(542.3486,473.4204)" id="g138"><path id="path140" style="fill:#ffffff;fill-opacity:1;fill-rule:nonzero;stroke:none" d="M 0,0 -1.767,0.484 2.304,18.499 4.069,18.015 Z"></path></g><g transform="translate(494.7148,78.9697)" id="g142"><path id="path144" style="fill:#e9928b;fill-opacity:1;fill-rule:nonzero;stroke:none" d="m 0,0 -17.826,-18.303 -4.448,21.937 -1.723,8.497 21.304,5.931 1.229,-8.264 z"></path></g><g transform="translate(493.251,88.7676)" id="g146"><path id="path148" style="fill:#de6667;fill-opacity:1;fill-rule:nonzero;stroke:none" d="m 0,0 c 0,0 -4.593,0.523 -8.809,-0.611 -3.096,-0.833 -12.002,-5.553 -12.002,-5.553 l -1.722,8.497 21.304,5.932 z"></path></g><g transform="translate(490.0928,80.9775)" id="g150"><path id="path152" style="fill:#0c1b3c;fill-opacity:1;fill-rule:nonzero;stroke:none" d="m 0,0 c -9.022,0.153 -12.258,-7.993 -15.291,-15.563 -3.033,-7.572 -6.711,-25.233 -11.969,-27.014 -5.257,-1.781 -8.088,-4.899 -8.088,-8.461 h 18.974 c 0,0 11.906,14.412 18.029,20.04 6.124,5.627 7.611,9.273 7.611,9.273 0,0 -2.353,13.927 -4.645,19.716 0,0 -1.616,1.958 -4.621,2.009"></path></g><g transform="translate(491.585,66.4531)" id="g154"><path id="path156" style="fill:#408c91;fill-opacity:1;fill-rule:nonzero;stroke:none" d="m 0,0 c -6.58,-1.502 -9.002,-9.278 -13.046,-22.192 -4.044,-12.915 -12.066,-14.322 -12.066,-14.322 h 22.411 c 0,0 1.249,4.748 3.914,10.759 1.974,4.449 5.37,9.538 6.23,14.18 C 9.465,-0.665 1.604,0.366 0,0"></path></g><g transform="translate(493.1885,95.0791)" id="g158"><path id="path160" style="fill:#376f92;fill-opacity:1;fill-rule:nonzero;stroke:none" d="m 0,0 c -14.069,-1.718 -23.938,-6.869 -23.938,-6.869 0,0 -4.79,-1.717 -11.72,14.341 -6.931,16.065 -31.293,66.369 -31.293,66.369 l 28.014,-0.978 21.181,-0.74 c 0,0 11.436,-31.864 16.98,-45.411 C 4.769,13.165 0,0 0,0"></path></g><g transform="translate(469.25,116.7695)" id="g162"><path id="path164" style="fill:#1b5175;fill-opacity:1;fill-rule:nonzero;stroke:none" d="m 0,0 c -8.49,-11.196 -5.648,-24.225 0,-28.56 0,0 -4.789,-1.716 -11.72,14.341 -6.931,16.066 -31.292,66.369 -31.292,66.369 l 28.014,-0.977 18.29,-8.944 c 0,0 -18.013,-2.542 -22.061,-12.975 C -22.809,18.82 8.49,11.188 0,0"></path></g><g transform="translate(888.2529,27.418)" id="g166"><path id="path168" style="fill:#adccc7;fill-opacity:1;fill-rule:nonzero;stroke:none" d="m 0,0 c 0,0 0.084,56.276 -55.875,28.901 0,0 -12.297,48.446 -44.523,46.156 -32.227,-2.289 -35.345,-48.131 -35.345,-48.131 0,0 -44.136,24.705 -67.809,-25.4 z"></path></g><g transform="translate(793.9873,29.418)" id="g170"><path id="path172" style="fill:#6eab9c;fill-opacity:1;fill-rule:nonzero;stroke:none" d="m 0,0 -1.372,0.212 c 3.728,29.309 -10.607,50.326 -10.753,50.535 l 1.101,0.929 C -10.875,51.461 3.808,29.934 0,0"></path></g><g transform="translate(794.4922,47.3984)" id="g174"><path id="path176" style="fill:#6eab9c;fill-opacity:1;fill-rule:nonzero;stroke:none" d="m 0,0 -1.119,0.9 c 0.132,0.2 13.218,20.02 15.453,32.479 l 1.36,-0.297 C 13.398,20.291 0.546,0.822 0,0"></path></g><g transform="translate(793.8701,37.0146)" id="g178"><path id="path180" style="fill:#6eab9c;fill-opacity:1;fill-rule:nonzero;stroke:none" d="m 0,0 c -10.22,0.705 -19.257,14.023 -19.637,14.59 l 1.116,0.906 C -18.432,15.363 -9.485,2.184 0.087,1.523 Z"></path></g><g transform="translate(826.6514,29.6211)" id="g182"><path id="path184" style="fill:#6eab9c;fill-opacity:1;fill-rule:nonzero;stroke:none" d="m 0,0 1.862,1.471 c 0.177,0.138 17.891,13.965 36.859,14.937 l 0.065,-1.525 C 23.934,14.121 9.826,5.275 4.701,1.707 l 18.405,0.706 0.049,-1.525 z"></path></g><g transform="translate(841.2236,37.5283)" id="g186"><path id="path188" style="fill:#6eab9c;fill-opacity:1;fill-rule:nonzero;stroke:none" d="M 0,0 -1.312,0.495 C 1.602,9.847 7.749,18.69 8.01,19.062 L 9.107,18.131 C 9.045,18.042 2.836,9.109 0,0"></path></g><g transform="translate(752.1934,29.8887)" id="g190"><path id="path192" style="fill:#6eab9c;fill-opacity:1;fill-rule:nonzero;stroke:none" d="m 0,0 c -0.137,0.128 -13.879,12.835 -29.209,18.757 l 0.459,1.439 C -13.174,14.181 0.757,1.294 0.896,1.165 Z"></path></g><g transform="translate(716.457,34.3369)" id="g194"><path id="path196" style="fill:#6eab9c;fill-opacity:1;fill-rule:nonzero;stroke:none" d="M 0,0 -0.634,1.358 C -0.229,1.586 9.45,6.925 27.26,4.195 L 27.069,2.684 C 9.733,5.338 0.096,0.054 0,0"></path></g><g id="g198"><g id="g200"></g><g id="g216"><g style="opacity:0.39999402" id="g214" clip-path="url(#clipPath204)"><g id="g208" transform="translate(340.1611,121.5146)"><path id="path206" style="fill:#f4d7c9;fill-opacity:1;fill-rule:nonzero;stroke:none" d="m 0,0 c -19.187,0 -34.737,17.124 -34.737,38.252 0,21.129 15.55,38.253 34.737,38.253 19.187,0 34.737,-17.124 34.737,-38.253 C 34.737,17.124 19.187,0 0,0 m 52.986,29.486 -3.126,1.912 c -1.98,1.212 -3.202,3.52 -3.167,6.013 0.006,0.28 0.012,0.561 0.012,0.841 0,0.281 -0.006,0.561 -0.012,0.842 -0.035,2.493 1.187,4.801 3.167,6.012 l 3.126,1.913 c 2.472,1.51 3.688,4.679 2.964,7.688 -0.011,0.032 -0.017,0.07 -0.029,0.103 -0.729,3.003 -3.23,5.075 -6.05,5.023 L 46.288,59.77 c -2.293,-0.045 -4.389,1.338 -5.506,3.538 -0.226,0.433 -0.452,0.867 -0.678,1.295 -1.181,2.167 -1.221,4.864 -0.04,7.038 L 41.899,75 c 1.453,2.672 1.071,6.089 -0.926,8.288 -0.023,0.026 -0.053,0.058 -0.076,0.083 -1.997,2.2 -5.1,2.62 -7.526,1.021 L 30.32,82.37 c -1.974,-1.3 -4.424,-1.256 -6.392,0.045 -0.387,0.249 -0.782,0.497 -1.175,0.746 -1.998,1.231 -3.254,3.538 -3.213,6.063 l 0.058,3.947 c 0.046,3.104 -1.836,5.858 -4.562,6.662 -0.03,0.013 -0.064,0.019 -0.093,0.031 -2.733,0.798 -5.61,-0.541 -6.983,-3.263 L 6.224,93.157 C 5.124,90.978 3.028,89.632 0.764,89.67 0.509,89.677 0.254,89.683 0,89.683 c -0.255,0 -0.51,-0.006 -0.764,-0.013 -2.264,-0.038 -4.36,1.308 -5.46,3.487 l -1.737,3.444 c -1.372,2.722 -4.249,4.061 -6.982,3.263 -0.029,-0.012 -0.064,-0.018 -0.093,-0.031 -2.727,-0.804 -4.608,-3.558 -4.562,-6.662 l 0.058,-3.947 c 0.04,-2.525 -1.216,-4.832 -3.213,-6.063 -0.394,-0.249 -0.788,-0.497 -1.175,-0.746 -1.969,-1.301 -4.418,-1.345 -6.392,-0.045 l -3.051,2.022 c -2.426,1.599 -5.529,1.179 -7.526,-1.021 -0.024,-0.025 -0.053,-0.057 -0.076,-0.083 -1.997,-2.199 -2.38,-5.616 -0.926,-8.288 l 1.835,-3.359 c 1.181,-2.174 1.141,-4.871 -0.04,-7.038 -0.226,-0.428 -0.452,-0.862 -0.678,-1.295 -1.117,-2.2 -3.213,-3.583 -5.506,-3.538 l -3.584,0.063 c -2.819,0.052 -5.32,-2.02 -6.049,-5.023 -0.012,-0.033 -0.018,-0.071 -0.03,-0.103 -0.723,-3.009 0.493,-6.178 2.965,-7.688 l 3.126,-1.913 c 1.98,-1.211 3.202,-3.519 3.167,-6.012 -0.006,-0.281 -0.012,-0.561 -0.012,-0.842 0,-0.28 0.006,-0.561 0.012,-0.841 0.035,-2.493 -1.187,-4.801 -3.167,-6.013 l -3.126,-1.912 c -2.472,-1.51 -3.688,-4.679 -2.965,-7.688 0.012,-0.032 0.018,-0.07 0.03,-0.103 0.729,-3.003 3.23,-5.075 6.049,-5.023 l 3.584,0.063 c 2.293,0.045 4.389,-1.339 5.506,-3.538 0.226,-0.433 0.452,-0.867 0.678,-1.295 1.181,-2.167 1.221,-4.864 0.04,-7.038 l -1.835,-3.36 c -1.454,-2.671 -1.071,-6.088 0.926,-8.288 0.023,-0.026 0.052,-0.057 0.076,-0.082 1.997,-2.2 5.1,-2.621 7.526,-1.021 l 3.051,2.022 c 1.974,1.3 4.423,1.256 6.392,-0.045 0.387,-0.249 0.781,-0.497 1.175,-0.746 1.997,-1.231 3.253,-3.538 3.213,-6.064 l -0.058,-3.946 c -0.046,-3.105 1.835,-5.858 4.562,-6.662 0.029,-0.013 0.064,-0.019 0.093,-0.032 2.733,-0.797 5.61,0.542 6.982,3.264 l 1.737,3.443 c 1.1,2.18 3.196,3.526 5.46,3.487 0.254,-0.006 0.509,-0.013 0.764,-0.013 0.254,0 0.509,0.007 0.764,0.013 2.264,0.039 4.36,-1.307 5.46,-3.487 l 1.736,-3.443 c 1.373,-2.722 4.25,-4.061 6.983,-3.264 0.029,0.013 0.063,0.019 0.093,0.032 2.726,0.804 4.608,3.557 4.562,6.662 l -0.058,3.946 c -0.041,2.526 1.215,4.833 3.213,6.064 0.393,0.249 0.788,0.497 1.175,0.746 1.968,1.301 4.418,1.345 6.392,0.045 l 3.051,-2.022 c 2.426,-1.6 5.529,-1.179 7.526,1.021 0.023,0.025 0.053,0.056 0.076,0.082 1.997,2.2 2.379,5.617 0.926,8.288 l -1.835,3.36 c -1.181,2.174 -1.141,4.871 0.04,7.038 0.226,0.428 0.452,0.862 0.678,1.295 1.117,2.199 3.213,3.583 5.506,3.538 l 3.583,-0.063 c 2.82,-0.052 5.321,2.02 6.05,5.023 0.012,0.033 0.018,0.071 0.029,0.103 0.724,3.009 -0.492,6.178 -2.964,7.688"></path></g><g id="g212" transform="translate(355.8413,159.4482)"><path id="path210" style="fill:#f4d7c9;fill-opacity:1;fill-rule:nonzero;stroke:none" d="m 0,0 c 0,-9.536 -7.021,-17.267 -15.68,-17.267 -8.66,0 -15.68,7.731 -15.68,17.267 0,9.536 7.02,17.267 15.68,17.267 C -7.021,17.267 0,9.536 0,0"></path></g></g></g></g><g id="g218"><g id="g220"></g><g id="g232"><g style="opacity:0.39999402" id="g230" clip-path="url(#clipPath224)"><g id="g228" transform="translate(568.1084,56.9492)"><path id="path226" style="fill:#f4d7c9;fill-opacity:1;fill-rule:nonzero;stroke:none" d="m 0,0 c -11.2,0 -20.277,9.996 -20.277,22.329 0,12.333 9.077,22.329 20.277,22.329 11.199,0 20.276,-9.996 20.276,-22.329 C 20.276,9.996 11.199,0 0,0 m 30.929,17.212 -1.825,1.116 c -1.156,0.707 -1.87,2.055 -1.849,3.51 0.004,0.164 0.007,0.327 0.007,0.491 0,0.164 -0.003,0.327 -0.007,0.491 -0.021,1.455 0.693,2.803 1.849,3.51 l 1.825,1.116 c 1.443,0.882 2.152,2.732 1.73,4.489 -0.007,0.018 -0.011,0.041 -0.017,0.059 -0.426,1.752 -1.886,2.962 -3.532,2.932 l -2.091,-0.037 c -1.338,-0.026 -2.562,0.782 -3.214,2.065 -0.132,0.253 -0.264,0.507 -0.396,0.756 -0.689,1.266 -0.713,2.84 -0.023,4.108 l 1.071,1.961 c 0.848,1.56 0.625,3.555 -0.541,4.838 -0.014,0.016 -0.03,0.034 -0.044,0.049 -1.166,1.284 -2.977,1.529 -4.393,0.596 l -1.781,-1.18 c -1.152,-0.76 -2.582,-0.733 -3.731,0.025 -0.227,0.146 -0.456,0.29 -0.686,0.436 -1.166,0.719 -1.899,2.065 -1.876,3.539 l 0.034,2.304 c 0.027,1.812 -1.071,3.42 -2.663,3.888 C 8.759,58.282 8.739,58.286 8.722,58.293 7.127,58.759 5.447,57.977 4.646,56.388 L 3.633,54.378 C 2.99,53.105 1.767,52.32 0.445,52.343 0.297,52.347 0.148,52.351 0,52.351 c -0.149,0 -0.298,-0.004 -0.446,-0.008 -1.322,-0.023 -2.545,0.762 -3.188,2.035 l -1.013,2.01 c -0.801,1.589 -2.481,2.371 -4.076,1.905 -0.017,-0.007 -0.037,-0.011 -0.054,-0.019 -1.591,-0.468 -2.69,-2.076 -2.662,-3.888 l 0.033,-2.304 c 0.023,-1.474 -0.71,-2.82 -1.876,-3.539 -0.23,-0.146 -0.459,-0.29 -0.686,-0.436 -1.149,-0.758 -2.578,-0.785 -3.731,-0.025 l -1.78,1.18 c -1.417,0.933 -3.228,0.688 -4.394,-0.596 -0.014,-0.015 -0.03,-0.033 -0.044,-0.049 -1.166,-1.283 -1.389,-3.278 -0.541,-4.838 l 1.071,-1.961 c 0.69,-1.268 0.666,-2.842 -0.023,-4.108 -0.132,-0.249 -0.264,-0.503 -0.396,-0.756 -0.652,-1.283 -1.875,-2.091 -3.214,-2.065 l -2.091,0.037 c -1.646,0.03 -3.106,-1.18 -3.532,-2.932 -0.006,-0.018 -0.01,-0.041 -0.017,-0.059 -0.422,-1.757 0.288,-3.607 1.73,-4.489 l 1.826,-1.116 c 1.156,-0.707 1.869,-2.055 1.848,-3.51 -0.003,-0.164 -0.007,-0.327 -0.007,-0.491 0,-0.164 0.004,-0.327 0.007,-0.491 0.021,-1.455 -0.692,-2.803 -1.848,-3.51 l -1.826,-1.116 c -1.442,-0.882 -2.152,-2.732 -1.73,-4.488 0.007,-0.019 0.011,-0.04 0.017,-0.06 0.426,-1.752 1.886,-2.962 3.532,-2.932 l 2.091,0.038 c 1.339,0.025 2.562,-0.783 3.214,-2.066 0.132,-0.253 0.264,-0.507 0.396,-0.756 0.689,-1.265 0.713,-2.84 0.023,-4.108 l -1.071,-1.961 c -0.848,-1.56 -0.625,-3.555 0.541,-4.838 0.014,-0.016 0.03,-0.034 0.044,-0.049 1.166,-1.284 2.977,-1.529 4.394,-0.596 l 1.78,1.18 c 1.153,0.76 2.582,0.734 3.731,-0.025 0.227,-0.146 0.456,-0.29 0.686,-0.436 1.166,-0.719 1.899,-2.065 1.876,-3.539 l -0.033,-2.304 c -0.028,-1.812 1.071,-3.419 2.662,-3.888 0.017,-0.008 0.037,-0.012 0.054,-0.019 1.595,-0.466 3.275,0.317 4.076,1.906 l 1.013,2.009 c 0.643,1.273 1.866,2.058 3.188,2.035 0.148,-0.003 0.297,-0.006 0.446,-0.006 0.148,0 0.297,0.003 0.445,0.006 1.322,0.023 2.545,-0.762 3.188,-2.035 l 1.013,-2.009 c 0.801,-1.589 2.481,-2.372 4.076,-1.906 0.017,0.007 0.037,0.011 0.054,0.019 1.592,0.469 2.69,2.076 2.663,3.888 l -0.034,2.304 c -0.023,1.474 0.71,2.82 1.876,3.539 0.23,0.146 0.459,0.29 0.686,0.436 1.149,0.759 2.579,0.785 3.731,0.025 l 1.781,-1.18 c 1.416,-0.933 3.227,-0.688 4.393,0.596 0.014,0.015 0.03,0.033 0.044,0.049 1.166,1.283 1.389,3.278 0.541,4.838 L 23.386,2.84 c -0.69,1.268 -0.666,2.843 0.023,4.108 0.132,0.249 0.264,0.503 0.396,0.756 0.652,1.283 1.876,2.091 3.214,2.066 L 29.11,9.732 c 1.646,-0.03 3.106,1.18 3.532,2.932 0.006,0.02 0.01,0.041 0.017,0.06 0.422,1.756 -0.287,3.606 -1.73,4.488"></path></g></g></g></g><g transform="translate(604.5967,559.0103)" id="g234"><path id="path236" style="fill:#eb908b;fill-opacity:1;fill-rule:nonzero;stroke:none" d="M 0,0 H 91.854 V -34.834 H 75.485 l 8.538,-22.152 -30.524,22.152 H 0 Z"></path></g><path id="path238" style="fill:#ffffff;fill-opacity:1;fill-rule:nonzero;stroke:none" d="m 615.496,544.988 h 71.414 v 3.846 h -71.414 z"></path><path id="path240" style="fill:#ffffff;fill-opacity:1;fill-rule:nonzero;stroke:none" d="m 615.496,534.303 h 71.414 v 3.847 h -71.414 z"></path><path id="path242" style="fill:#aecbc7;fill-opacity:1;fill-rule:nonzero;stroke:none" d="M 888.253,20 H 72.063 v 11.051 h 816.19 z"></path><g transform="translate(504.9531,260.416)" id="g244"><path id="path246" style="fill:#b6d5d0;fill-opacity:1;fill-rule:nonzero;stroke:none" d="m 0,0 v 11.991 l -9.805,2.787 -7.511,9.859 1.96,5.902 -59.841,75.299 h -249.992 c -2.45,0 -4.439,-2.191 -4.439,-4.888 v -8.516 l 0.058,-0.052 c 0.152,-1.374 0.659,-2.749 1.587,-3.963 l 66.319,-87.038 c 4.818,-6.319 11.928,-9.975 19.428,-9.975 H -6.935 c 3.85,0 6.55,3.212 6.935,6.834 0.059,0.578 0.059,1.169 0,1.76"></path></g><g transform="translate(498.0195,263.8115)" id="g248"><path id="path250" style="fill:#ffffff;fill-opacity:1;fill-rule:nonzero;stroke:none" d="m 0,0 h -235.305 c -7.496,0 -14.608,3.652 -19.426,9.976 l -66.32,87.035 c -3.803,4.991 -0.581,12.601 5.336,12.601 H -80.41 c 7.495,0 14.607,-3.652 19.426,-9.975 L 5.336,12.601 C 9.14,7.61 5.917,0 0,0"></path></g><g transform="translate(468.707,282.957)" id="g252"><path id="path254" style="fill:#b2e5e0;fill-opacity:1;fill-rule:nonzero;stroke:none" d="M 0,0 V 0 C -0.46,0 -0.897,0.224 -1.194,0.612 L -46.92,60.435 c -0.855,1.119 -0.133,2.827 1.194,2.827 0.461,0 0.898,-0.224 1.195,-0.612 L 1.195,2.827 C 2.05,1.709 1.328,0 0,0"></path></g><g transform="translate(289.8638,307.8955)" id="g256"><path id="path258" style="fill:#dceceb;fill-opacity:1;fill-rule:nonzero;stroke:none" d="m 0,0 h -52.911 c -1.245,0 -2.425,0.608 -3.222,1.661 l -25.944,34.278 c -0.877,1.159 -0.129,2.917 1.241,2.917 h 52.911 c 1.244,0 2.425,-0.608 3.221,-1.661 L 1.241,2.917 C 2.117,1.759 1.369,0 0,0"></path></g><g transform="translate(264.1821,282.3662)" id="g260"><path id="path262" style="fill:#b2e5e0;fill-opacity:1;fill-rule:nonzero;stroke:none" d="m 0,0 h -7.803 c -1.24,0 -2.417,0.604 -3.214,1.652 l -9.592,12.608 c -0.881,1.157 -0.134,2.92 1.237,2.92 h 7.803 c 1.241,0 2.418,-0.605 3.215,-1.653 L 1.238,2.92 C 2.119,1.763 1.371,0 0,0"></path></g><g transform="translate(286.7339,282.3662)" id="g264"><path id="path266" style="fill:#b2e5e0;fill-opacity:1;fill-rule:nonzero;stroke:none" d="m 0,0 h -7.802 c -1.241,0 -2.418,0.604 -3.215,1.652 l -9.592,12.608 c -0.881,1.157 -0.134,2.92 1.238,2.92 h 7.802 c 1.241,0 2.418,-0.605 3.215,-1.653 L 1.238,2.92 C 2.119,1.763 1.371,0 0,0"></path></g><g transform="translate(309.2856,282.3662)" id="g268"><path id="path270" style="fill:#b2e5e0;fill-opacity:1;fill-rule:nonzero;stroke:none" d="m 0,0 h -7.802 c -1.241,0 -2.418,0.604 -3.215,1.652 l -9.592,12.608 c -0.881,1.157 -0.134,2.92 1.238,2.92 h 7.802 c 1.241,0 2.418,-0.605 3.215,-1.653 L 1.238,2.92 C 2.119,1.763 1.371,0 0,0"></path></g><g transform="translate(351.2061,330.437)" id="g272"><path id="path274" style="fill:#dceceb;fill-opacity:1;fill-rule:nonzero;stroke:none" d="m 0,0 h -59.77 c -1.24,0 -2.416,0.604 -3.213,1.65 l -8.949,11.744 c -0.881,1.157 -0.134,2.921 1.238,2.921 h 59.77 c 1.24,0 2.416,-0.604 3.213,-1.649 L 1.237,2.922 C 2.119,1.765 1.372,0 0,0"></path></g><g transform="translate(369.499,306.4307)" id="g276"><path id="path278" style="fill:#dceceb;fill-opacity:1;fill-rule:nonzero;stroke:none" d="m 0,0 h -59.771 c -1.239,0 -2.416,0.604 -3.212,1.649 l -8.949,11.745 c -0.881,1.157 -0.134,2.92 1.237,2.92 h 59.771 c 1.239,0 2.416,-0.603 3.213,-1.649 L 1.237,2.922 C 2.119,1.765 1.372,0 0,0"></path></g><g transform="translate(387.8359,282.3662)" id="g280"><path id="path282" style="fill:#dceceb;fill-opacity:1;fill-rule:nonzero;stroke:none" d="m 0,0 h -59.771 c -1.239,0 -2.415,0.604 -3.212,1.649 l -8.949,11.744 c -0.881,1.157 -0.134,2.921 1.238,2.921 h 59.77 c 1.239,0 2.416,-0.603 3.213,-1.649 L 1.237,2.921 C 2.119,1.764 1.372,0 0,0"></path></g><g transform="translate(414.1748,282.957)" id="g284"><path id="path286" style="fill:#b2e5e0;fill-opacity:1;fill-rule:nonzero;stroke:none" d="m 0,0 v 0 c -0.461,0 -0.898,0.224 -1.195,0.612 l -45.726,59.823 c -0.855,1.119 -0.133,2.827 1.195,2.827 0.461,0 0.898,-0.224 1.195,-0.612 L 1.195,2.827 C 2.05,1.709 1.328,0 0,0"></path></g><g transform="translate(380.3813,333.3198)" id="g288"><path id="path290" style="fill:#b2e5e0;fill-opacity:1;fill-rule:nonzero;stroke:none" d="m 0,0 h -6.513 c -0.939,0 -2.34,0.839 -3.128,1.874 l -2.365,3.104 c -0.789,1.034 -0.666,1.873 0.273,1.873 h 6.513 c 0.94,0 2.34,-0.839 3.129,-1.873 L 0.274,1.874 C 1.062,0.839 0.939,0 0,0"></path></g><g transform="translate(380.8286,334.9795)" id="g292"><path id="path294" style="fill:#dceceb;fill-opacity:1;fill-rule:nonzero;stroke:none" d="m 0,0 h -6.513 c -0.939,0 -2.34,0.839 -3.128,1.874 l -2.365,3.104 c -0.789,1.034 -0.666,1.873 0.273,1.873 h 6.513 c 0.94,0 2.34,-0.839 3.129,-1.873 L 0.274,1.874 C 1.062,0.839 0.94,0 0,0"></path></g><g transform="translate(446.5825,317.7822)" id="g296"><path id="path298" style="fill:#b2e5e0;fill-opacity:1;fill-rule:nonzero;stroke:none" d="m 0,0 h -6.513 c -0.939,0 -2.34,0.838 -3.128,1.873 l -2.366,3.104 c -0.788,1.035 -0.665,1.874 0.274,1.874 h 6.513 c 0.939,0 2.34,-0.839 3.128,-1.874 L 0.274,1.873 C 1.062,0.838 0.939,0 0,0"></path></g><g transform="translate(447.0298,319.4414)" id="g300"><path id="path302" style="fill:#dceceb;fill-opacity:1;fill-rule:nonzero;stroke:none" d="m 0,0 h -6.513 c -0.939,0 -2.34,0.839 -3.128,1.873 l -2.366,3.105 c -0.788,1.034 -0.665,1.873 0.274,1.873 h 6.513 c 0.939,0 2.34,-0.839 3.129,-1.873 L 0.274,1.873 C 1.062,0.839 0.939,0 0,0"></path></g><g transform="translate(441.6841,282.957)" id="g304"><path id="path306" style="fill:#b2e5e0;fill-opacity:1;fill-rule:nonzero;stroke:none" d="m 0,0 v 0 c -0.461,0 -0.898,0.224 -1.195,0.612 l -45.726,59.823 c -0.855,1.119 -0.133,2.827 1.195,2.827 0.461,0 0.898,-0.224 1.195,-0.612 L 1.195,2.827 C 2.05,1.709 1.328,0 0,0"></path></g><g transform="translate(435.1743,297.5146)" id="g308"><path id="path310" style="fill:#b2e5e0;fill-opacity:1;fill-rule:nonzero;stroke:none" d="m 0,0 h -6.513 c -0.94,0 -2.34,0.839 -3.129,1.873 l -2.365,3.105 c -0.788,1.034 -0.666,1.873 0.274,1.873 h 6.512 c 0.94,0 2.341,-0.839 3.129,-1.873 L 0.273,1.873 C 1.062,0.839 0.939,0 0,0"></path></g><g transform="translate(435.6216,299.1748)" id="g312"><path id="path314" style="fill:#dceceb;fill-opacity:1;fill-rule:nonzero;stroke:none" d="m 0,0 h -6.513 c -0.94,0 -2.34,0.838 -3.129,1.873 l -2.365,3.105 c -0.788,1.034 -0.666,1.873 0.274,1.873 h 6.513 c 0.939,0 2.34,-0.839 3.128,-1.873 L 0.273,1.873 C 1.062,0.838 0.939,0 0,0"></path></g><g transform="translate(512.5674,207.042)" id="g316"><path id="path318" style="fill:#376f92;fill-opacity:1;fill-rule:nonzero;stroke:none" d="m 0,0 c 0,0 -3.771,-12.868 -17.216,-24.171 -6.502,-5.473 -15.268,-10.578 -26.968,-13.692 -35.88,-9.548 -64.608,-6.098 -66.688,-6.48 -1.85,-0.336 16.045,-31.482 26.116,-50.174 1.254,-2.319 2.384,-4.449 3.34,-6.303 0.118,-0.229 0.229,-0.451 0.34,-0.672 8.206,-16.234 3.819,-20.317 3.819,-20.317 -8.317,-1.144 -19.753,-11.448 -19.753,-11.448 -17.327,-4.961 -27.723,24.805 -37.426,37.398 -9.703,12.592 -34.654,49.99 -23.564,70.215 11.088,20.225 109.686,46.174 109.686,46.174 l 9.828,-4.175 18.539,-7.876 z"></path></g><g transform="translate(431.1514,106.2217)" id="g320"><path id="path322" style="fill:#1b5175;fill-opacity:1;fill-rule:nonzero;stroke:none" d="M 0,0 C 0.118,-0.229 0.229,-0.45 0.34,-0.672 0.201,-0.48 0.09,-0.26 0,0"></path></g><g transform="translate(502.1709,193.3418)" id="g324"><path id="path326" style="fill:#1b5175;fill-opacity:1;fill-rule:nonzero;stroke:none" d="m 0,0 c -0.056,-0.145 -2.647,-4.189 -6.819,-10.471 -6.502,-5.472 -15.269,-10.578 -26.968,-13.692 -35.881,-9.548 -64.609,-6.098 -66.688,-6.48 -1.851,-0.336 16.045,-31.482 26.115,-50.173 -6.044,8.006 -15.587,9.059 -22.726,25.072 -8.664,19.431 -29.109,-0.734 -32.845,15.294 -3.736,16.028 10.667,14.883 31.806,25.186 21.138,10.304 24.604,6.106 43.774,10.311 19.177,4.206 16.166,30.099 16.166,30.099 l 10.095,4.91 14.048,2 c 0,0 1.996,-4.367 4.491,-9.876 C -5.378,12.937 0.181,0.481 0,0"></path></g><g transform="translate(440.2759,77.4746)" id="g328"><path id="path330" style="fill:#0c1b3c;fill-opacity:1;fill-rule:nonzero;stroke:none" d="m 0,0 c 0,0 9.977,-9.174 10.205,-16.142 0.229,-6.967 -21.006,-30.587 -21.006,-30.587 h -26.935 c 0,0 -2.887,4.868 4.567,8.357 7.454,3.488 8.199,3.693 10.994,6.976 2.795,3.284 5.217,12.107 9.69,21.341 C -8.013,-0.82 0,0 0,0"></path></g><g transform="translate(450.1523,437.0425)" id="g332"><path id="path334" style="fill:#e9928b;fill-opacity:1;fill-rule:nonzero;stroke:none" d="m 0,0 c 0,0 -6.304,4.272 -8.405,9.078 -2.102,4.806 -7.436,15.308 -7.76,17.8 -0.323,2.493 4.203,-0.177 6.79,-5.162 0,0 -1.778,5.341 -5.011,12.283 -3.233,6.941 -8.406,11.214 -7.113,14.596 1.293,3.382 10.669,-9.434 11.8,-11.571 1.132,-2.135 3.395,0.179 6.304,-1.423 2.91,-1.602 2.91,0.178 5.82,-1.78 2.91,-1.959 5.414,-5.937 8.445,-23.439 z"></path></g><g transform="translate(375.8491,303.7314)" id="g336"><path id="path338" style="fill:#e9928b;fill-opacity:1;fill-rule:nonzero;stroke:none" d="m 0,0 c 0,0 -3.418,1.294 -9.187,7.411 -5.769,6.117 -9.188,8.353 -11.11,9.293 -1.923,0.942 -5.021,2 -8.226,1.765 -3.205,-0.235 -4.914,1.412 -4.166,2.589 0.748,1.175 3.739,1.999 3.739,1.999 0,0 -5.876,-0.588 -4.38,2.353 1.496,2.941 9.935,1.764 9.935,1.764 0,0 1.602,2.236 3.846,2.236 2.243,0 2.029,1.999 6.516,1.411 4.487,-0.588 6.837,-3.529 11.537,-4.705 4.701,-1.177 8.582,-11.939 8.582,-11.939 z"></path></g><g transform="translate(382.9067,319.0957)" id="g340"><path id="path342" style="fill:#93405e;fill-opacity:1;fill-rule:nonzero;stroke:none" d="m 0,0 c 0,0 -7.547,-7.347 -9.857,-15.105 l -0.809,-2.291 4.39,-6.742 10.165,21.37 z"></path></g><g transform="translate(449.3457,430.396)" id="g344"><path id="path346" style="fill:#93405e;fill-opacity:1;fill-rule:nonzero;stroke:none" d="m 0,0 -3.639,6.296 c 0,0 7.104,9.159 16.287,11.83 l 2.26,-4.388 z"></path></g><g transform="translate(558.2061,349.144)" id="g348"><path id="path350" style="fill:#67a4c3;fill-opacity:1;fill-rule:nonzero;stroke:none" d="m 0,0 -27.633,-16.142 -4.103,-2.396 c 0,0 -1.462,0.809 -3.861,2.19 -7.831,4.526 -25.616,15.188 -34.626,23.759 -4.185,3.976 -11.131,13.524 -18.352,24.178 -13.078,19.294 -27.044,42.221 -27.044,42.221 10.05,17.172 21.666,22.897 21.666,22.897 0,0 31.292,-48.464 36.143,-53.043 2.835,-2.68 22.117,-17.15 37.642,-28.705 C -9.135,6.739 0,0 0,0"></path></g><g transform="translate(558.2061,349.144)" id="g352"><path id="path354" style="fill:#4f91b3;fill-opacity:1;fill-rule:nonzero;stroke:none" d="m 0,0 -27.633,-16.142 c -2.453,-0.061 -5.156,-0.129 -7.964,-0.206 -7.831,4.526 -25.616,15.188 -34.626,23.759 -4.185,3.976 -11.131,13.524 -18.352,24.178 5.739,-3.289 11.401,-6.182 14.693,-9.311 7.166,-6.831 5.087,1.527 36.969,-3.304 6.3,-0.954 11.865,-2.367 16.745,-4.015 C -9.135,6.739 0,0 0,0"></path></g><g transform="translate(536.1523,354.0137)" id="g356"><path id="path358" style="fill:#e9928b;fill-opacity:1;fill-rule:nonzero;stroke:none" d="m 0,0 c 0,0 -23.911,-16.157 -23.967,-5.984 -0.013,3.412 -0.575,6.358 -1.309,8.754 -1.455,4.763 -3.604,7.403 -3.604,7.403 0,0 -0.008,-0.007 -0.015,-0.023 -8.538,-10.021 -12.343,-6.845 -13.382,-4.938 -1.04,1.909 -8.088,17.936 -7.049,23.278 1.04,5.343 0.81,8.526 -0.694,11.83 -1.497,3.305 0.694,11.319 0.694,11.319 l 20.335,4.709 c 0,0 18.824,-21.119 20.445,-28.239 C -6.931,20.988 0,0 0,0"></path></g><g transform="translate(563.1826,284.8135)" id="g360"><path id="path362" style="fill:#67a4c3;fill-opacity:1;fill-rule:nonzero;stroke:none" d="m 0,0 c -6.238,-20.607 -40.164,-89.426 -57.928,-91.388 -7.242,-0.8 -16.578,4.405 -25.095,10.854 -12.373,9.364 -23.018,21.346 -23.018,21.346 15.595,12.173 13.516,50.563 13.516,50.563 0,0 0,-0.007 -0.007,-0.015 -0.34,-0.305 -22.29,-20.378 -37.004,-22.27 -14.839,-1.908 -62.793,34.725 -62.793,34.725 0,0 10.743,29.766 15.941,28.622 5.198,-1.146 39.505,-25.569 45.383,-25.95 5.87,-0.382 39.172,32.437 47.461,41.595 8.297,9.158 40.92,23.278 63.791,23.659 0,0 14.901,-2.671 20.1,-14.882 C 5.544,44.647 6.237,20.606 0,0"></path></g><g transform="translate(496.7432,428.3076)" id="g364"><path id="path366" style="fill:#0c1b3c;fill-opacity:1;fill-rule:nonzero;stroke:none" d="m 0,0 c -10.862,-1.436 -21.175,-10.297 -17.843,-19.175 3.332,-8.877 9.836,-9.942 14.001,-10.001 4.164,-0.059 5.55,-2.782 7.007,-5.267 1.457,-2.486 2.102,-0.947 3.929,3.077 1.827,4.024 6.019,1.148 6.127,-4.279 0.107,-5.427 -0.752,-18.565 8.061,-18.801 8.814,-0.237 10.533,3.787 10.856,3.787 0.323,0 7.524,16.216 6.987,30.419 0,0 9.136,5.208 7.416,13.493 -1.72,8.286 -11.608,9.943 -17.52,3.255 0,0 -4.944,-0.296 -9.566,3.137 C 14.833,3.078 8.599,4.734 5.697,2.722 2.795,0.71 2.688,0.355 0,0"></path></g><path id="path368" style="fill:#f0d1aa;fill-opacity:1;fill-rule:nonzero;stroke:none" d="m 504.493,39.304 h -9.281 v 116.124 h 9.281 z"></path><g transform="translate(504.4932,39.3037)" id="g370"><path id="path372" style="fill:#edbf84;fill-opacity:1;fill-rule:nonzero;stroke:none" d="M 0,0 H -4.641 V 116.124 L 0,116.44 Z"></path></g><g transform="translate(536.5898,30.7178)" id="g374"><path id="path376" style="fill:#edbf84;fill-opacity:1;fill-rule:nonzero;stroke:none" d="m 0,0 h -73.475 c 0,2.373 0.874,4.513 2.286,6.067 1.412,1.555 3.361,2.517 5.516,2.517 H -7.801 C -3.49,8.584 0,4.74 0,0"></path></g><g transform="translate(513.1426,30.7178)" id="g378"><path id="path380" style="fill:#f0d1aa;fill-opacity:1;fill-rule:nonzero;stroke:none" d="m 0,0 h -50.027 c 0,2.373 0.874,4.513 2.285,6.067 1.412,1.555 3.361,2.517 5.516,2.517 h 28.936 z"></path></g><g transform="translate(591.0264,277.2607)" id="g382"><path id="path384" style="fill:#f4c8af;fill-opacity:1;fill-rule:nonzero;stroke:none" d="M 0,0 C -0.659,-0.337 -1.303,-0.697 -1.932,-1.074 -2.136,-1.198 -2.34,-1.322 -2.539,-1.451 -2.744,-1.575 -2.943,-1.705 -3.143,-1.84 -3.342,-1.969 -3.536,-2.099 -3.735,-2.239 -3.919,-2.363 -4.098,-2.486 -4.271,-2.616 -4.481,-2.763 -4.686,-2.914 -4.89,-3.072 -5.079,-3.213 -5.269,-3.358 -5.457,-3.505 -5.646,-3.651 -5.835,-3.804 -6.02,-3.955 -6.643,-4.462 -7.256,-4.996 -7.854,-5.554 -8.073,-5.756 -8.288,-5.958 -8.497,-6.167 -9.254,-6.898 -9.989,-7.669 -10.699,-8.474 l -0.021,-0.022 c -0.292,-0.326 -0.578,-0.664 -0.864,-1.002 -0.04,-0.05 -0.087,-0.106 -0.127,-0.157 -0.281,-0.338 -0.558,-0.681 -0.828,-1.03 -0.302,-0.382 -0.593,-0.765 -0.884,-1.159 -0.015,-0.028 -0.036,-0.051 -0.056,-0.073 -0.271,-0.366 -0.537,-0.743 -0.797,-1.12 -0.282,-0.394 -0.552,-0.793 -0.818,-1.204 -0.015,-0.023 -0.03,-0.045 -0.046,-0.068 -0.265,-0.399 -0.521,-0.804 -0.777,-1.214 -0.27,-0.422 -0.531,-0.856 -0.786,-1.289 0,0 0,-0.005 -0.011,-0.011 -0.224,-0.383 -0.449,-0.772 -0.669,-1.165 -0.061,-0.107 -0.123,-0.214 -0.184,-0.326 -0.056,-0.096 -0.113,-0.192 -0.163,-0.293 -0.409,-0.732 -0.802,-1.48 -1.191,-2.24 -0.47,-0.923 -0.93,-1.862 -1.369,-2.813 -0.226,-0.478 -0.445,-0.962 -0.659,-1.446 -0.22,-0.484 -0.43,-0.973 -0.639,-1.463 -0.419,-0.985 -0.828,-1.981 -1.222,-2.988 -0.199,-0.501 -0.393,-1.006 -0.582,-1.519 -0.194,-0.512 -0.383,-1.024 -0.567,-1.536 -0.163,-0.445 -0.322,-0.889 -0.48,-1.333 -0.205,-0.591 -0.409,-1.188 -0.614,-1.789 -0.178,-0.524 -0.352,-1.047 -0.52,-1.577 -0.021,-0.061 -0.041,-0.123 -0.062,-0.185 -0.153,-0.467 -0.306,-0.934 -0.45,-1.406 -0.342,-1.086 -0.68,-2.184 -1.006,-3.286 -0.148,-0.512 -0.302,-1.025 -0.445,-1.542 -0.153,-0.541 -0.307,-1.081 -0.459,-1.621 -0.292,-1.024 -0.567,-2.047 -0.844,-3.078 -0.015,-0.061 -0.03,-0.124 -0.046,-0.179 -0.148,-0.546 -0.291,-1.092 -0.428,-1.638 -0.006,-0.011 -0.006,-0.017 -0.011,-0.028 -0.138,-0.535 -0.281,-1.075 -0.414,-1.61 -0.179,-0.691 -0.353,-1.389 -0.527,-2.081 -0.096,-0.394 -0.194,-0.794 -0.291,-1.187 -0.055,-0.22 -0.107,-0.44 -0.163,-0.659 -0.347,-1.412 -0.684,-2.825 -1.017,-4.225 -0.327,-1.367 -0.644,-2.73 -0.96,-4.08 -0.133,-0.573 -0.271,-1.148 -0.405,-1.722 -0.419,-1.8 -0.832,-3.572 -1.241,-5.322 -0.128,-0.513 -0.245,-1.025 -0.368,-1.536 -0.22,-0.929 -0.444,-1.846 -0.664,-2.752 -0.138,-0.563 -0.275,-1.125 -0.414,-1.682 -0.5,-1.998 -1.001,-3.939 -1.523,-5.812 -0.117,-0.428 -0.234,-0.85 -0.352,-1.272 -0.087,-0.299 -0.174,-0.597 -0.261,-0.895 -0.071,-0.253 -0.142,-0.506 -0.22,-0.754 -0.24,-0.822 -0.485,-1.626 -0.74,-2.413 -0.266,-0.85 -0.542,-1.683 -0.823,-2.488 -0.015,-0.045 -0.03,-0.084 -0.041,-0.124 -0.127,-0.365 -0.255,-0.719 -0.388,-1.074 -0.112,-0.309 -0.224,-0.619 -0.343,-0.923 -0.03,-0.079 -0.061,-0.163 -0.091,-0.242 -0.133,-0.349 -0.271,-0.697 -0.409,-1.041 -0.01,-0.028 -0.021,-0.056 -0.036,-0.084 -0.148,-0.372 -0.301,-0.737 -0.455,-1.092 -0.153,-0.36 -0.306,-0.709 -0.465,-1.052 -0.112,-0.259 -0.23,-0.512 -0.352,-0.759 -0.051,-0.118 -0.108,-0.232 -0.164,-0.344 -0.148,-0.304 -0.296,-0.597 -0.449,-0.889 -0.072,-0.14 -0.143,-0.275 -0.215,-0.411 -0.092,-0.174 -0.189,-0.348 -0.286,-0.523 -13.03,-23.351 -50.075,-22.506 -50.075,-22.506 h -54.417 c -12.774,0 -13.029,14.348 1.533,15.473 14.562,1.126 42.921,19.693 55.695,60.487 6.193,19.771 13.402,31.543 19.191,38.43 4.921,5.857 11.88,9.115 19.126,9.115 H -0.327 C 0.526,1.677 0.776,0.399 0,0"></path></g><g transform="translate(589.0947,276.1865)" id="g386"><path id="path388" style="fill:#f7dfd3;fill-opacity:1;fill-rule:nonzero;stroke:none" d="M 0,0 C -0.204,-0.124 -0.408,-0.248 -0.607,-0.377 -0.812,-0.501 -1.012,-0.631 -1.211,-0.766 -1.41,-0.895 -1.604,-1.024 -1.804,-1.165 -1.982,-1.289 -2.161,-1.412 -2.34,-1.542 -2.55,-1.688 -2.754,-1.84 -2.958,-1.998 c -0.194,-0.141 -0.384,-0.286 -0.567,-0.433 -0.19,-0.146 -0.378,-0.298 -0.563,-0.45 -0.623,-0.507 -1.236,-1.041 -1.834,-1.598 -0.22,-0.203 -0.434,-0.405 -0.643,-0.614 -0.757,-0.731 -1.493,-1.502 -2.203,-2.306 l -0.02,-0.023 c -0.292,-0.326 -0.578,-0.664 -0.864,-1.002 -0.04,-0.05 -0.087,-0.106 -0.127,-0.157 -0.282,-0.338 -0.558,-0.681 -0.828,-1.029 -0.302,-0.383 -0.593,-0.772 -0.884,-1.16 -0.016,-0.028 -0.036,-0.05 -0.057,-0.073 -0.265,-0.371 -0.536,-0.743 -0.797,-1.12 -0.275,-0.399 -0.551,-0.799 -0.817,-1.204 -0.016,-0.022 -0.03,-0.045 -0.046,-0.067 -0.261,-0.4 -0.521,-0.805 -0.777,-1.215 -0.266,-0.422 -0.526,-0.856 -0.786,-1.289 0,0 0,-0.005 -0.011,-0.011 -0.22,-0.383 -0.445,-0.772 -0.669,-1.165 -0.062,-0.107 -0.123,-0.214 -0.185,-0.326 -0.051,-0.096 -0.106,-0.192 -0.158,-0.293 h -0.005 c -0.408,-0.732 -0.802,-1.48 -1.19,-2.239 -0.47,-0.923 -0.93,-1.863 -1.369,-2.814 -0.226,-0.477 -0.446,-0.956 -0.66,-1.446 -0.214,-0.484 -0.429,-0.968 -0.638,-1.463 -0.419,-0.984 -0.828,-1.981 -1.222,-2.987 -0.194,-0.501 -0.393,-1.007 -0.582,-1.52 -0.194,-0.512 -0.384,-1.023 -0.567,-1.536 -0.163,-0.444 -0.323,-0.889 -0.481,-1.333 -0.204,-0.591 -0.408,-1.188 -0.613,-1.789 -0.174,-0.524 -0.353,-1.047 -0.521,-1.576 -0.02,-0.062 -0.041,-0.123 -0.061,-0.186 -0.153,-0.467 -0.302,-0.933 -0.45,-1.406 -0.342,-1.086 -0.68,-2.184 -1.006,-3.286 -0.149,-0.512 -0.297,-1.025 -0.445,-1.542 -0.154,-0.54 -0.307,-1.08 -0.459,-1.62 -0.288,-1.025 -0.568,-2.054 -0.844,-3.078 -0.015,-0.062 -0.03,-0.125 -0.046,-0.18 -0.143,-0.546 -0.286,-1.092 -0.429,-1.638 -0.006,-0.011 -0.006,-0.016 -0.011,-0.028 -0.137,-0.534 -0.275,-1.069 -0.414,-1.61 -0.178,-0.691 -0.352,-1.389 -0.526,-2.081 -0.097,-0.399 -0.194,-0.794 -0.291,-1.187 -0.056,-0.22 -0.107,-0.44 -0.163,-0.658 -0.343,-1.412 -0.685,-2.826 -1.018,-4.226 -0.326,-1.367 -0.643,-2.729 -0.96,-4.08 -0.132,-0.573 -0.265,-1.153 -0.404,-1.722 -0.419,-1.799 -0.832,-3.572 -1.241,-5.322 -0.122,-0.518 -0.245,-1.03 -0.368,-1.536 -0.22,-0.929 -0.445,-1.846 -0.664,-2.752 -0.138,-0.563 -0.276,-1.125 -0.414,-1.682 -0.5,-1.998 -1.001,-3.939 -1.523,-5.812 -0.117,-0.428 -0.234,-0.85 -0.352,-1.272 -0.087,-0.298 -0.174,-0.596 -0.261,-0.895 -0.071,-0.253 -0.143,-0.506 -0.22,-0.754 -0.24,-0.821 -0.485,-1.626 -0.74,-2.413 -0.267,-0.85 -0.542,-1.683 -0.823,-2.487 -0.015,-0.045 -0.031,-0.084 -0.041,-0.124 -0.127,-0.366 -0.255,-0.72 -0.388,-1.075 -0.112,-0.309 -0.225,-0.619 -0.343,-0.923 -0.03,-0.079 -0.061,-0.163 -0.092,-0.242 -0.132,-0.348 -0.27,-0.697 -0.409,-1.041 -0.01,-0.028 -0.02,-0.055 -0.035,-0.084 -0.148,-0.372 -0.302,-0.737 -0.455,-1.092 -0.153,-0.36 -0.307,-0.709 -0.465,-1.052 -0.112,-0.259 -0.23,-0.512 -0.352,-0.759 -0.051,-0.118 -0.108,-0.232 -0.165,-0.344 -0.147,-0.304 -0.295,-0.596 -0.449,-0.888 -0.163,-0.322 -0.332,-0.63 -0.501,-0.935 -13.029,-23.351 -50.074,-22.506 -50.074,-22.506 h -50.973 c -3.638,3.128 -1.865,7.9 7.797,8.648 14.563,1.126 46.028,23.767 58.801,64.56 6.193,19.773 13.403,31.543 19.192,38.431 4.921,5.857 11.88,9.115 19.125,9.115 z"></path></g><g transform="translate(573.2959,258.6533)" id="g390"><path id="path392" style="fill:#f4c8af;fill-opacity:1;fill-rule:nonzero;stroke:none" d="m 0,0 c -0.408,-0.731 -0.802,-1.479 -1.19,-2.239 -0.47,-0.923 -0.93,-1.863 -1.37,-2.814 -0.225,-0.477 -0.445,-0.956 -0.659,-1.446 -0.215,-0.483 -0.429,-0.968 -0.638,-1.463 -0.419,-0.984 -0.829,-1.98 -1.222,-2.987 -0.194,-0.501 -0.394,-1.007 -0.582,-1.52 -0.194,-0.511 -0.384,-1.023 -0.568,-1.536 -0.163,-0.444 -0.322,-0.889 -0.48,-1.333 -0.204,-0.591 -0.408,-1.187 -0.613,-1.789 -0.174,-0.523 -0.353,-1.047 -0.521,-1.576 -0.02,-0.062 -0.041,-0.123 -0.061,-0.186 -0.154,-0.466 -0.302,-0.933 -0.45,-1.406 -0.342,-1.086 -0.68,-2.184 -1.006,-3.286 -0.149,-0.512 -0.297,-1.024 -0.446,-1.542 -0.153,-0.54 -0.306,-1.08 -0.459,-1.62 -0.287,-1.025 -0.567,-2.054 -0.843,-3.078 -0.015,-0.062 -0.031,-0.124 -0.046,-0.18 -0.143,-0.546 -0.286,-1.092 -0.429,-1.638 -0.006,-0.01 -0.006,-0.016 -0.011,-0.028 -0.137,-0.534 -0.275,-1.068 -0.414,-1.609 -0.179,-0.692 -0.352,-1.39 -0.526,-2.081 -0.097,-0.4 -0.195,-0.794 -0.291,-1.188 -0.056,-0.22 -0.108,-0.439 -0.163,-0.658 -0.343,-1.412 -0.685,-2.825 -1.018,-4.226 -0.326,-1.367 -0.643,-2.729 -0.96,-4.08 -0.133,-0.573 -0.265,-1.153 -0.404,-1.721 -0.419,-1.8 -0.832,-3.573 -1.241,-5.323 -0.122,-0.517 -0.245,-1.03 -0.368,-1.536 -0.22,-0.929 -0.445,-1.846 -0.665,-2.752 -0.137,-0.562 -0.275,-1.125 -0.414,-1.681 -0.5,-1.999 -1.001,-3.94 -1.522,-5.813 -0.117,-0.428 -0.234,-0.85 -0.353,-1.271 -0.087,-0.299 -0.173,-0.597 -0.26,-0.896 -0.072,-0.253 -0.143,-0.506 -0.22,-0.754 -0.24,-0.821 -0.485,-1.626 -0.74,-2.413 -0.267,-0.85 -0.542,-1.683 -0.824,-2.487 -0.014,-0.045 -0.03,-0.084 -0.041,-0.124 -0.127,-0.366 -0.254,-0.72 -0.387,-1.074 -0.113,-0.31 -0.225,-0.62 -0.343,-0.923 -0.03,-0.079 -0.062,-0.163 -0.092,-0.243 -0.133,-0.348 -0.27,-0.697 -0.409,-1.041 -0.01,-0.028 -0.021,-0.055 -0.035,-0.084 -0.149,-0.372 -0.302,-0.737 -0.455,-1.091 -0.154,-0.361 -0.307,-0.709 -0.465,-1.053 -0.112,-0.259 -0.231,-0.512 -0.353,-0.759 -0.05,-0.118 -0.107,-0.231 -0.164,-0.344 -0.147,-0.303 -0.296,-0.596 -0.449,-0.888 -0.071,-0.141 -0.142,-0.276 -0.215,-0.411 -0.092,-0.174 -0.188,-0.349 -0.286,-0.524 -13.029,-23.35 -50.074,-22.506 -50.074,-22.506 h -17.909 c 1.881,0.123 36.677,1.964 49.086,59.239 C -36.19,-5.315 -13.428,-3.016 0,0"></path></g><g transform="translate(198.2837,155.9854)" id="g394"><path id="path396" style="fill:#dceceb;fill-opacity:1;fill-rule:nonzero;stroke:none" d="M 0,0 V 39.22 C 0,51.443 -8.999,61.353 -20.099,61.353 H -45.512 V -125.166 H -12.938 0 40.198 v 80.9 c 0,12.224 -8.998,22.133 -20.099,22.133 C 8.999,-22.133 0,-12.224 0,0"></path></g><g transform="translate(192.8638,78.1875)" id="g398"><path id="path400" style="fill:#f2d6c8;fill-opacity:1;fill-rule:nonzero;stroke:none" d="m 0,0 c -7.752,16.292 -17.108,27.917 -32.311,41.07 -15.203,13.154 -35.12,13.209 -43.251,17.451 -8.132,4.244 -8.341,-7.5 -5.815,-18.533 2.525,-11.032 -5.142,-61.821 41.054,-77.97 C 5.872,-54.131 5.725,-12.029 0,0"></path></g><g transform="translate(163.6816,67.2314)" id="g402"><path id="path404" style="fill:#f5b89b;fill-opacity:1;fill-rule:nonzero;stroke:none" d="M 0,0 C -0.342,0 -0.639,0.277 -0.687,0.66 -2.899,18.64 5.195,36.406 5.278,36.583 5.45,36.959 5.869,37.109 6.209,36.916 6.55,36.726 6.686,36.267 6.513,35.891 6.433,35.717 -1.466,18.362 0.687,0.866 0.739,0.448 0.473,0.063 0.094,0.007 0.062,0.002 0.03,0 0,0"></path></g><g transform="translate(163.8037,65.2207)" id="g406"><path id="path408" style="fill:#f5b89b;fill-opacity:1;fill-rule:nonzero;stroke:none" d="m 0,0 c -0.108,0 -0.218,0.028 -0.321,0.087 -13.767,7.965 -37.694,5.11 -37.933,5.081 -0.382,-0.04 -0.725,0.254 -0.767,0.673 -0.042,0.419 0.23,0.797 0.611,0.845 0.999,0.123 24.593,2.933 38.733,-5.248 C 0.662,1.243 0.793,0.781 0.615,0.408 0.49,0.148 0.25,0 0,0"></path></g><g transform="translate(168.1255,50.5938)" id="g410"><path id="path412" style="fill:#f5b89b;fill-opacity:1;fill-rule:nonzero;stroke:none" d="m 0,0 c -0.312,0 -0.596,0.233 -0.673,0.583 -9.921,45.119 -49.236,77.001 -49.632,77.318 -0.309,0.247 -0.378,0.724 -0.153,1.066 0.225,0.342 0.658,0.419 0.968,0.168 C -49.09,78.815 -9.366,46.601 0.674,0.942 0.764,0.532 0.536,0.12 0.164,0.021 0.109,0.007 0.054,0 0,0"></path></g><g transform="translate(149.5581,92.9102)" id="g414"><path id="path416" style="fill:#f5b89b;fill-opacity:1;fill-rule:nonzero;stroke:none" d="m 0,0 c -0.152,0 -0.305,0.054 -0.433,0.167 -8.98,7.911 -30.671,5.848 -30.888,5.826 -0.388,-0.048 -0.719,0.272 -0.753,0.691 -0.035,0.42 0.246,0.792 0.627,0.83 C -30.533,7.603 -8.982,9.652 0.434,1.359 0.732,1.096 0.781,0.615 0.542,0.286 0.405,0.098 0.204,0 0,0"></path></g><g transform="translate(142.354,102.9668)" id="g418"><path id="path420" style="fill:#f5b89b;fill-opacity:1;fill-rule:nonzero;stroke:none" d="m 0,0 c -0.27,0 -0.527,0.175 -0.639,0.467 -2.814,7.367 -1.331,19.826 -1.266,20.353 0.05,0.418 0.389,0.71 0.779,0.655 0.379,-0.057 0.645,-0.441 0.594,-0.859 C -0.547,20.492 -2.028,8.04 0.639,1.059 0.787,0.671 0.621,0.223 0.269,0.06 0.181,0.02 0.09,0 0,0"></path></g><g transform="translate(853.8555,352.5249)" id="g422"><path id="path424" style="fill:#0c1b3c;fill-opacity:1;fill-rule:nonzero;stroke:none" d="M 0,0 C -0.707,-1.007 -1.524,-1.771 -2.426,-2.312 -9.918,-6.854 -23.37,3.03 -29.519,2.709 -36.407,2.343 -39.686,-7.586 -55.924,-0.542 c -16.232,7.045 -12.462,34.849 -11.477,45.328 0.984,10.471 -4.921,15.706 -15.089,15.348 -10.16,-0.367 -20.889,5.777 -16.266,23.476 4.629,17.691 -8.4,26.972 -16.197,23.835 -7.798,-3.144 -3.611,11.914 -3.611,11.914 0,0 6.653,10.44 19.808,8.922 4.123,-0.473 7.097,-1.969 9.363,-4.045 0,0 0.007,0 0.014,-0.015 0.526,-0.489 1.019,-1 1.47,-1.542 0.007,-0.015 0.02,-0.023 0.027,-0.038 3.798,-4.541 5.288,-10.884 7.694,-15.738 3.936,-7.945 10.493,-7.403 20.66,-3.976 10.167,3.434 30.662,1.847 35.091,-16.86 4.428,-18.713 -7.375,-40.564 13.778,-45.983 C 10.493,34.673 6.557,9.388 0,0"></path></g><g transform="translate(736.0918,473.377)" id="g426"><path id="path428" style="fill:#3fb8a9;fill-opacity:1;fill-rule:nonzero;stroke:none" d="m 0,0 c 0,0 6.131,-4.452 5.434,-13.483 0,0 0.01,-2.606 -2.689,-1.272 -2.7,1.333 -4.887,11.119 -4.65,13.229 C -1.669,0.583 -0.677,0.25 0,0"></path></g><g transform="translate(733.5029,433.0591)" id="g430"><path id="path432" style="fill:#0c1b3c;fill-opacity:1;fill-rule:nonzero;stroke:none" d="m 0,0 c -9.405,-9.029 -14.014,-8.395 -16.759,-3.969 -1.025,1.649 -3.86,5.732 -7.027,10.204 -5.31,7.526 -11.527,16.158 -11.527,16.158 0,0 -9.841,0.687 -10.056,9.066 -0.041,1.604 0.236,3.206 0.818,4.763 2.426,6.587 10.126,12.28 20.827,13.257 C -10.493,50.685 1.531,43.458 5.031,33.345 8.524,23.232 9.398,9.029 0,0"></path></g><g id="g434"><g id="g436"></g><g id="g448"><g style="opacity:0.52000397" id="g446" clip-path="url(#clipPath440)"><g id="g444" transform="translate(709.7168,439.2944)"><path id="path442" style="fill:#1b5175;fill-opacity:1;fill-rule:nonzero;stroke:none" d="m 0,0 c -5.31,7.525 -11.526,16.157 -11.526,16.157 0,0 -9.842,0.687 -10.057,9.067 -0.041,1.603 0.236,3.206 0.818,4.763 1.954,3.366 5.628,6.266 12.517,5.312 C 6.515,33.253 -0.34,6.098 3.306,3.244 4.644,2.19 2.834,1.038 0,0"></path></g></g></g></g><g transform="translate(657.4268,272.165)" id="g450"><path id="path452" style="fill:#ffac95;fill-opacity:1;fill-rule:nonzero;stroke:none" d="m 0,0 c 0,0 -5.225,-1.686 -7.789,-3.82 -2.564,-2.135 -8.803,-5.437 -8.922,-6.553 -0.12,-1.115 5.237,0.617 7.349,1.519 2.11,0.901 1.779,-1.319 -0.851,-4.062 -2.629,-2.743 -3.692,-3.941 -6.72,-6.479 -3.027,-2.537 -3.382,-3.673 -2.217,-4.133 1.164,-0.461 2.235,0.377 2.235,0.377 0,0 -2.719,-2.269 -1.641,-3.54 1.077,-1.272 4.404,1.432 4.404,1.432 0,0 -0.945,-1.832 1.35,-1.77 2.295,0.061 3.071,1.194 5.781,2.076 2.709,0.882 10.872,10.361 12.767,13.663 1.896,3.302 2.857,6.159 2.857,6.159 z"></path></g><g transform="translate(713.6787,350.21)" id="g454"><path id="path456" style="fill:#f5911f;fill-opacity:1;fill-rule:nonzero;stroke:none" d="m 0,0 c 0,0 5,-27.514 -7.214,-42.911 -12.214,-15.398 -40.085,-43.568 -40.085,-43.568 l -10.252,8.845 c 0,0 25.095,36.566 28.537,50.607 0.734,2.992 1.419,8.745 1.419,8.745 z"></path></g><g transform="translate(678.2822,276.1865)" id="g458"><path id="path460" style="fill:#ffac95;fill-opacity:1;fill-rule:nonzero;stroke:none" d="M 0,0 C 0,0 -0.777,3.173 0.378,5.957 1.533,8.741 7.02,0.409 7.02,0.409 l 1.444,-6.932 z"></path></g><g transform="translate(813.6572,87.335)" id="g462"><path id="path464" style="fill:#1b5175;fill-opacity:1;fill-rule:nonzero;stroke:none" d="m 0,0 c 4.681,-5.547 14.626,-26.443 14.626,-26.443 l -7.364,-5.89 c 0,0 -8.43,13.945 -10.179,13.109 -1.75,-0.836 -0.031,-21.273 -2.375,-23.147 -2.343,-1.874 -17.909,-14.322 -17.909,-14.322 0,0 -0.662,7.207 2.368,13.852 2.685,5.886 5.451,18.019 -1.57,36.311 -0.909,2.37 -1.98,4.846 -3.239,7.421 l 16.163,16.585 c 0,0 1.995,-4.949 4.657,-9.947 C -3.348,4.767 -1.671,1.975 0,0"></path></g><g transform="translate(788.0156,88.2256)" id="g466"><path id="path468" style="fill:#e9928b;fill-opacity:1;fill-rule:nonzero;stroke:none" d="m 0,0 16.162,16.585 c 0,0 1.995,-4.948 4.657,-9.946 L 3.238,-7.421 C 2.33,-5.051 1.259,-2.574 0,0"></path></g><g transform="translate(817.2754,108.8018)" id="g470"><path id="path472" style="fill:#5f6386;fill-opacity:1;fill-rule:nonzero;stroke:none" d="m 0,0 -35.854,-26.973 c 0,0 -18.761,25.393 -35.395,48.74 -11.096,15.585 -21.249,30.246 -24.223,35.839 -6.002,11.281 -14.575,55.875 -17.652,72.589 -0.728,3.977 -1.15,6.381 -1.15,6.381 l 4.393,13.577 8.532,26.362 0.631,1.954 c 0,0 6.155,3.496 13.009,5.365 1.822,0.504 3.701,0.886 5.517,1.062 5.592,0.526 10.687,-0.94 12.281,-7.198 0.09,-0.366 0.174,-0.756 0.243,-1.152 0.318,-1.87 0.665,-4.267 1.032,-7.053 3.091,-23.697 7.437,-75.977 8.802,-81.854 C -58.302,81.083 0,0 0,0"></path></g><g transform="translate(746.0264,130.5684)" id="g474"><path id="path476" style="fill:#4a4e73;fill-opacity:1;fill-rule:nonzero;stroke:none" d="m 0,0 c -11.096,15.585 -21.249,30.246 -24.223,35.84 -6.002,11.28 -14.575,55.875 -17.652,72.589 0.853,3.74 1.504,6.22 1.829,6.755 1.844,3.052 42.659,32.543 42.659,32.543 0,0 1.699,-26.362 -6.39,-43.19 C -11.865,87.708 -18.796,75.374 -12.322,57.248 -5.856,39.114 -19.718,28.682 -8.628,18.508 -2.218,12.623 -0.395,5.205 0,0"></path></g><g transform="translate(676.627,61.5029)" id="g478"><path id="path480" style="fill:#1b5175;fill-opacity:1;fill-rule:nonzero;stroke:none" d="m 0,0 c 0.827,-7.518 -2.275,-30.861 -2.275,-30.861 h -9.102 c 0,0 0.621,16.738 -1.241,17.193 -1.861,0.456 -11.377,-17.193 -14.274,-17.193 h -22.133 c 0,0 3.31,6.259 9.308,9.676 5.313,3.025 14.026,11.052 18.105,30.397 0.529,2.505 0.984,5.202 1.341,8.1 l 21.926,2.961 c 0,0 -1.026,-5.294 -1.539,-11.061 C -0.165,6.022 -0.298,2.679 0,0"></path></g><g transform="translate(656.3555,78.8145)" id="g482"><path id="path484" style="fill:#e9928b;fill-opacity:1;fill-rule:nonzero;stroke:none" d="m 0,0 21.927,2.962 c 0,0 -1.027,-5.294 -1.539,-11.062 H -1.341 C -0.812,-5.595 -0.356,-2.897 0,0"></path></g><g transform="translate(697.3164,298.3477)" id="g486"><path id="path488" style="fill:#5f6386;fill-opacity:1;fill-rule:nonzero;stroke:none" d="m 0,0 c 0,0 -31.485,-81.381 -40.668,-115.089 -9.184,-33.708 -23.177,-106.421 -23.177,-106.421 h 48.103 c 0,0 18.804,98.716 27.111,114.608 8.309,15.89 39.357,73.675 34.547,94.381 C 41.105,8.187 0,0 0,0"></path></g><g transform="translate(748.6396,278.2949)" id="g490"><path id="path492" style="fill:#4a4e73;fill-opacity:1;fill-rule:nonzero;stroke:none" d="m 0,0 -14.592,-41.704 -47.3,33.072 29.179,15.653 13.64,7.32 3.818,2.054 1.698,-0.993 12.282,-7.197 C -1.186,7.839 -1.102,7.449 -1.032,7.053 -0.714,5.183 -0.367,2.786 0,0"></path></g><g transform="translate(723.9912,408.1094)" id="g494"><path id="path496" style="fill:#ffab40;fill-opacity:1;fill-rule:nonzero;stroke:none" d="m 0,0 c 0,0 -11.369,-5.267 -20.99,-19.713 -9.62,-14.446 -20.99,-41.308 -21.864,-46.416 -0.875,-5.109 7.499,-45.682 7.466,-56.153 -0.032,-10.472 44.742,-6.604 57.423,0.138 0,0 -4.98,38.385 -4.98,43.683 0,5.297 0.437,40.931 -2.187,57.303 C 12.244,-4.785 0,0 0,0"></path></g><g transform="translate(721.2783,370.353)" id="g498"><path id="path500" style="fill:#f5911f;fill-opacity:1;fill-rule:nonzero;stroke:none" d="m 0,0 c 0,0 -1.796,-13.175 0,-23.097 1.796,-9.922 -12.255,-3.883 -17.127,-24.074 -4.872,-20.192 36.833,-10.4 36.833,-10.4 0,0 11.497,19.465 11.579,22.772 C 31.367,-31.492 0,0 0,0"></path></g><g transform="translate(723.9941,408.1099)" id="g502"><path id="path504" style="fill:#ffac95;fill-opacity:1;fill-rule:nonzero;stroke:none" d="m 0,0 c 0,0 -21.978,-24.888 -20.044,-18.333 1.061,3.611 -0.79,12.243 -2.668,19.271 -1.539,5.74 -3.092,10.411 -3.092,10.411 0,0 4.221,4.732 8.643,8.769 4.685,4.282 9.593,7.77 9.911,3.992 C -6.626,16.76 0,0 0,0"></path></g><g transform="translate(734.3994,252.209)" id="g506"><path id="path508" style="fill:#3fb8a9;fill-opacity:1;fill-rule:nonzero;stroke:none" d="m 0,0 -92.009,47.045 24.758,58.716 92.009,-47.045 z"></path></g><g transform="translate(650.5244,302.5303)" id="g510"><path id="path512" style="fill:#ffffff;fill-opacity:1;fill-rule:nonzero;stroke:none" d="M 0,0 19.6,46.483 100.499,5.118 80.899,-41.365 Z"></path></g><g transform="translate(658.7793,297.5068)" id="g514"><path id="path516" style="fill:#3fb8a9;fill-opacity:1;fill-rule:nonzero;stroke:none" d="m 0,0 33.182,25.675 3.6,-44.483 z"></path></g><g transform="translate(693.8555,279.4873)" id="g518"><path id="path520" style="fill:#3fb8a9;fill-opacity:1;fill-rule:nonzero;stroke:none" d="m 0,0 25.664,19.858 2.785,-34.404 z"></path></g><g transform="translate(713.9189,312.7568)" id="g522"><path id="path524" style="fill:#3fb8a9;fill-opacity:1;fill-rule:nonzero;stroke:none" d="m 0,0 c -1.403,-3.328 -4.991,-4.773 -8.014,-3.229 -3.022,1.546 -4.335,5.498 -2.931,8.826 1.403,3.328 4.991,4.773 8.013,3.227 C 0.091,7.279 1.403,3.328 0,0"></path></g><g transform="translate(695.3906,289.0166)" id="g526"><path id="path528" style="fill:#ffac95;fill-opacity:1;fill-rule:nonzero;stroke:none" d="m 0,0 c 0,0 -4.277,-0.665 -7.302,-1.521 -3.024,-0.857 -8.987,-0.381 -9.678,-1.904 -0.692,-1.522 6.696,-2.854 8.49,-3.045 1.793,-0.19 -2.787,-2.977 -5.379,-3.772 -2.593,-0.795 -4.667,-1.938 -1.988,-4.602 2.679,-2.665 6.827,-6.662 8.555,-6.947 1.729,-0.285 10.198,6.757 14.864,11.99 C 12.229,-4.566 0,0 0,0"></path></g><g transform="translate(724.4287,399.231)" id="g530"><path id="path532" style="fill:#ffab40;fill-opacity:1;fill-rule:nonzero;stroke:none" d="m 0,0 c -8.249,-6.952 -5.029,-24.799 -0.875,-36.356 4.154,-11.558 15.961,-32.745 15.087,-34.672 -0.875,-1.926 -44.633,-38.485 -44.633,-38.485 l 8.993,-12.438 c 0,0 41.543,22.993 51.82,31.18 10.276,8.187 11.151,17.095 8.089,28.652 C 35.421,-50.562 17.71,14.928 0,0"></path></g><g transform="translate(664.4941,76.6406)" id="g534"><path id="path536" style="fill:#4a4e73;fill-opacity:1;fill-rule:nonzero;stroke:none" d="m 0,0 -2.048,0.395 c 0.66,4.157 16.215,101.935 18.951,111.133 2.724,9.154 24.121,68.679 25.032,71.208 l 1.932,-0.843 C 43.645,181.274 21.583,119.903 18.88,110.815 16.189,101.772 0.162,1.017 0,0"></path></g><g transform="translate(801.4717,96.8105)" id="g538"><path id="path540" style="fill:#4a4e73;fill-opacity:1;fill-rule:nonzero;stroke:none" d="m 0,0 c -0.325,0.449 -32.737,45.202 -49.717,68.336 -17.137,23.352 -23.476,56.128 -23.539,56.455 l 2.036,0.467 c 0.062,-0.322 6.305,-32.571 23.12,-55.483 C -31.116,46.636 1.301,1.877 1.626,1.428 Z"></path></g><g id="g542"><g id="g544"></g><g id="g556"><g style="opacity:0.52000397" id="g554" clip-path="url(#clipPath548)"><g id="g552" transform="translate(853.8555,352.5249)"><path id="path550" style="fill:#1b5175;fill-opacity:1;fill-rule:nonzero;stroke:none" d="m 0,0 c -0.707,-1.007 -1.524,-1.771 -2.426,-2.312 7.291,9.563 1.941,22.232 -16.772,21.973 -18.713,-0.252 -23.793,17.553 -12.704,47.067 11.089,29.513 -16.863,31.803 -28.645,25.186 -11.782,-6.617 -23.801,-0.512 -23.336,13.806 0.312,9.579 -2.26,14.623 -3.999,16.921 3.798,-4.541 5.288,-10.884 7.694,-15.738 3.936,-7.945 10.493,-7.403 20.66,-3.976 10.167,3.434 30.662,1.847 35.091,-16.86 4.428,-18.713 -7.375,-40.564 13.778,-45.983 C 10.493,34.673 6.557,9.388 0,0"></path></g></g></g></g><g transform="translate(713.0576,429.3271)" id="g558"><path id="path560" style="fill:#e9928b;fill-opacity:1;fill-rule:nonzero;stroke:none" d="m 0,0 c 0,0 -3.293,-13.288 -11.775,-20.279 -1.539,5.74 -3.092,10.411 -3.092,10.411 0,0 4.221,4.732 8.642,8.769 z"></path></g><g transform="translate(698.8467,463.7578)" id="g562"><path id="path564" style="fill:#ffac95;fill-opacity:1;fill-rule:nonzero;stroke:none" d="m 0,0 c 0,0 -5.903,-16.131 -11.479,-19.262 -5.575,-3.13 -1.858,-3.852 0,-7.343 1.859,-3.491 -5.248,-14.326 0.875,-19.262 6.122,-4.936 20.334,3.13 24.816,11.437 0,0 7.763,-0.362 9.621,6.139 1.858,6.501 -4.154,10.594 -7.653,7.705 -3.498,-2.889 -3.936,3.13 -5.466,12.159 C 9.184,0.602 0.747,1.921 0,0"></path></g><g transform="translate(72.0625,31.0508)" id="g566"><path id="path568" style="fill:#adccc7;fill-opacity:1;fill-rule:nonzero;stroke:none" d="m 0,0 c -1.319,15.243 11.215,38.187 51.455,23.261 0,0 10.166,34.982 38.122,33.816 27.956,-1.166 36.851,-29.954 36.851,-29.954 0,0 37.557,5 42.923,-29.983 C 169.351,-2.86 1.906,-22.024 0,0"></path></g><g transform="translate(155.5254,28.4199)" id="g570"><path id="path572" style="fill:#6eab9c;fill-opacity:1;fill-rule:nonzero;stroke:none" d="m 0,0 -1.368,0.243 c 3.625,24.779 -10.32,42.558 -10.462,42.734 l 1.041,1.009 C -10.643,43.804 3.728,25.482 0,0"></path></g><g transform="translate(155.9878,43.5977)" id="g574"><path id="path576" style="fill:#6eab9c;fill-opacity:1;fill-rule:nonzero;stroke:none" d="m 0,0 -1.061,0.982 c 0.128,0.169 12.877,16.959 15.051,27.491 l 1.353,-0.338 C 13.093,17.242 0.534,0.699 0,0"></path></g><g transform="translate(155.4004,34.7813)" id="g578"><path id="path580" style="fill:#6eab9c;fill-opacity:1;fill-rule:nonzero;stroke:none" d="m 0,0 c -9.956,0.597 -18.779,11.903 -19.149,12.385 l 1.057,0.988 C -18.006,13.26 -9.28,2.085 0.076,1.523 Z"></path></g><g transform="translate(186.811,27.6133)" id="g582"><path id="path584" style="fill:#6eab9c;fill-opacity:1;fill-rule:nonzero;stroke:none" d="M 0,0 -0.906,1.155 C -0.187,1.84 16.831,17.936 25.679,18.206 L 25.717,16.68 C 17.36,16.425 0.172,0.164 0,0"></path></g><g transform="translate(220.0933,30.7676)" id="g586"><path id="path588" style="fill:#6eab9c;fill-opacity:1;fill-rule:nonzero;stroke:none" d="m 0,0 c -0.136,0.009 -13.695,0.916 -24.673,4.037 l 0.346,1.477 C -13.481,2.432 -0.053,1.532 0.081,1.523 Z"></path></g><g transform="translate(119.0283,28.5361)" id="g590"><path id="path592" style="fill:#6eab9c;fill-opacity:1;fill-rule:nonzero;stroke:none" d="m 0,0 c -8.96,8.205 -27.861,14.759 -28.051,14.824 l 0.413,1.458 C -26.852,16.012 -8.284,9.57 0.887,1.174 Z"></path></g><g transform="translate(112.0547,34.873)" id="g594"><path id="path596" style="fill:#6eab9c;fill-opacity:1;fill-rule:nonzero;stroke:none" d="m 0,0 -1.386,0.045 c 0.221,8.323 -3.072,14.864 -3.105,14.929 l 1.208,0.75 C -3.14,15.443 0.232,8.765 0,0"></path></g><g transform="translate(517.0674,527.6738)" id="g598"><path id="path600" style="fill:#b6d5d0;fill-opacity:1;fill-rule:nonzero;stroke:none" d="M 0,0 -243.962,-4.579 -248.813,0 V 88.278 H 0 l 4.852,-4.579 z"></path></g><g transform="translate(517.0674,624.1567)" id="g602"><path id="path604" style="fill:#b6d5d0;fill-opacity:1;fill-rule:nonzero;stroke:none" d="M 0,0 -243.962,-4.58 -248.813,0 V 19.843 H 0 l 4.852,-4.579 z"></path></g><path id="path606" style="fill:#dceceb;fill-opacity:1;fill-rule:nonzero;stroke:none" d="M 521.919,523.095 H 273.105 v 88.278 h 248.814 z"></path><path id="path608" style="fill:#edf6f5;fill-opacity:1;fill-rule:nonzero;stroke:none" d="M 521.919,619.577 H 273.105 v 19.844 h 248.814 z"></path><g transform="translate(324.104,629.499)" id="g610"><path id="path612" style="fill:#67a4c3;fill-opacity:1;fill-rule:nonzero;stroke:none" d="m 0,0 c 0,-2.05 -1.509,-3.712 -3.371,-3.712 -1.861,0 -3.37,1.662 -3.37,3.712 0,2.05 1.509,3.712 3.37,3.712 C -1.509,3.712 0,2.05 0,0"></path></g><g transform="translate(308.2417,629.499)" id="g614"><path id="path616" style="fill:#eb908b;fill-opacity:1;fill-rule:nonzero;stroke:none" d="m 0,0 c 0,-2.05 -1.509,-3.712 -3.371,-3.712 -1.861,0 -3.37,1.662 -3.37,3.712 0,2.05 1.509,3.712 3.37,3.712 C -1.509,3.712 0,2.05 0,0"></path></g><g transform="translate(292.3799,629.499)" id="g618"><path id="path620" style="fill:#ffaa3f;fill-opacity:1;fill-rule:nonzero;stroke:none" d="m 0,0 c 0,-2.05 -1.509,-3.712 -3.371,-3.712 -1.861,0 -3.371,1.662 -3.371,3.712 0,2.05 1.51,3.712 3.371,3.712 C -1.509,3.712 0,2.05 0,0"></path></g><g transform="translate(471.9023,549.0923)" id="g622"><path id="path624" style="fill:#b2e5e0;fill-opacity:1;fill-rule:nonzero;stroke:none" d="m 0,0 c -11.388,0 -20.619,10.166 -20.619,22.706 0,12.539 9.231,22.705 20.619,22.705 11.387,0 20.619,-10.166 20.619,-22.705 C 20.619,10.166 11.387,0 0,0 m 0,57.981 c -17.694,0 -32.034,-15.791 -32.034,-35.275 0,-19.485 14.34,-35.276 32.034,-35.276 17.694,0 32.034,15.791 32.034,35.276 0,19.484 -14.34,35.275 -32.034,35.275"></path></g><g transform="translate(489.8584,549.1001)" id="g626"><path id="path628" style="fill:#3fb8a9;fill-opacity:1;fill-rule:nonzero;stroke:none" d="m 0,0 c -3.043,-1.946 -6.57,-3.061 -10.334,-3.061 -10.07,0 -18.464,7.953 -20.259,18.478 -0.235,1.366 -0.36,2.785 -0.36,4.228 0,12.54 9.231,22.706 20.619,22.706 5.684,0 10.833,-2.535 14.568,-6.633 3.736,-4.114 6.051,-9.8 6.051,-16.073 C 10.285,11.25 6.147,3.923 0,0 M 12.302,44.602 C 6.508,50.982 -1.49,54.92 -10.334,54.92 c -17.694,0 -32.034,-15.79 -32.034,-35.275 0,-2.251 0.194,-4.457 0.561,-6.594 2.801,-16.333 15.824,-28.682 31.473,-28.682 5.856,0 11.339,1.725 16.059,4.74 9.55,6.105 15.975,17.493 15.975,30.536 0,9.753 -3.591,18.577 -9.398,24.957"></path></g><g transform="translate(511.5586,568.7451)" id="g630"><path id="path632" style="fill:#ffffff;fill-opacity:1;fill-rule:nonzero;stroke:none" d="m 0,0 c 0,-13.043 -6.425,-24.431 -15.976,-30.536 l -5.724,10.891 c 6.147,3.923 10.285,11.249 10.285,19.645 0,6.273 -2.315,11.959 -6.051,16.073 l 8.068,8.884 C -3.591,18.577 0,9.753 0,0"></path></g><g transform="translate(495.583,538.209)" id="g634"><path id="path636" style="fill:#ffc945;fill-opacity:1;fill-rule:nonzero;stroke:none" d="m 0,0 c -4.72,-3.015 -10.202,-4.74 -16.059,-4.74 -15.649,0 -28.672,12.349 -31.472,28.682 l 11.214,2.366 c 1.795,-10.525 10.188,-18.477 20.258,-18.477 3.764,0 7.291,1.114 10.334,3.06 z"></path></g><path id="path638" style="fill:#ffffff;fill-opacity:1;fill-rule:nonzero;stroke:none" d="M 397.859,588.349 H 286.332 v 5.734 h 111.527 z"></path><path id="path640" style="fill:#ffffff;fill-opacity:1;fill-rule:nonzero;stroke:none" d="M 397.859,564.69 H 286.332 v 5.734 h 111.527 z"></path><path id="path642" style="fill:#ffffff;fill-opacity:1;fill-rule:nonzero;stroke:none" d="M 397.859,541.03 H 286.332 v 5.734 h 111.527 z"></path><g transform="translate(723.0283,411.2549)" id="g644"><path id="path646" style="fill:#f5911f;fill-opacity:1;fill-rule:nonzero;stroke:none" d="m 0,0 c 0,0 -7.536,-9.365 -19.273,-14.517 l -1.564,-9.582 c 0,0 10.981,3.705 21.803,20.954 z"></path></g><g transform="translate(435.6172,30.7461)" id="g648"><path id="path650" style="fill:#408c91;fill-opacity:1;fill-rule:nonzero;stroke:none" d="m 0,0 h -13.168 c 0,0 10.613,5.859 14.09,17.864 2.507,8.655 6.6,16.963 11.694,14.911 C 17.709,30.723 13.511,21.188 10.808,15.812 6.957,8.15 0,0 0,0"></path></g><g transform="translate(179.9512,217.3379)" id="g652"><path id="path654" style="fill:#3fb8a9;fill-opacity:1;fill-rule:nonzero;stroke:none" d="m 0,0 h -2.079 v 92.695 c 0,7.881 5.823,14.293 12.979,14.293 h 8.582 v -2.29 H 10.9 C 4.89,104.698 0,99.313 0,92.695 Z"></path></g><g transform="translate(188.3491,216.377)" id="g656"><path id="path658" style="fill:#3fb8a9;fill-opacity:1;fill-rule:nonzero;stroke:none" d="m 0,0 h -2.079 v 92.694 c 0,3.673 2.714,6.661 6.049,6.661 H 19.061 V 97.066 H 3.97 C 1.781,97.066 0,95.105 0,92.694 Z"></path></g><g transform="translate(479.6387,207.042)" id="g660"><path id="path662" style="fill:#4f91b3;fill-opacity:1;fill-rule:nonzero;stroke:none" d="m 0,0 c 0.312,-0.932 0.479,-1.854 0.521,-2.763 -12.373,9.365 -23.018,21.347 -23.018,21.347 15.595,12.173 13.516,50.562 13.516,50.562 0,0 17.596,16.921 20.022,12.831 2.426,-4.091 -6.237,-27.56 0,-37.2 C 17.278,35.146 -5.143,15.607 0,0"></path></g><g transform="translate(510.876,356.7837)" id="g664"><path id="path666" style="fill:#de6667;fill-opacity:1;fill-rule:nonzero;stroke:none" d="m 0,0 c -1.455,4.763 -3.604,7.403 -3.604,7.403 0,0 3.154,4.305 3.611,9.662 C 0.007,17.065 4.214,6.373 0,0"></path></g><g transform="translate(342.1758,491.9839)" id="g668"><path id="path670" style="fill:#ffffff;fill-opacity:1;fill-rule:nonzero;stroke:none" d="m 0,0 c 0,-10.68 -7.862,-19.338 -17.561,-19.338 -9.699,0 -17.562,8.658 -17.562,19.338 0,10.681 7.863,19.338 17.562,19.338 C -7.862,19.338 0,10.681 0,0"></path></g><path id="path672" style="fill:#ffffff;fill-opacity:1;fill-rule:nonzero;stroke:none" d="m 437.428,505.292 h -77.985 v 5.548 h 77.985 z"></path><path id="path674" style="fill:#ffffff;fill-opacity:1;fill-rule:nonzero;stroke:none" d="m 437.428,488.888 h -77.985 v 5.548 h 77.985 z"></path><path id="path676" style="fill:#ffffff;fill-opacity:1;fill-rule:nonzero;stroke:none" d="m 402.598,472.646 h -43.155 v 5.548 h 43.155 z"></path><path id="path678" style="fill:#eb908b;fill-opacity:1;fill-rule:nonzero;stroke:none" d="M 146.217,239.802 H 103.34 v 32.084 h 42.877 z"></path><g transform="translate(118.5986,248.9746)" id="g680"><path id="path682" style="fill:#ffffff;fill-opacity:1;fill-rule:nonzero;stroke:none" d="m 0,0 c -0.937,-0.5 -2.162,-0.75 -3.672,-0.75 -1.97,0 -3.519,0.639 -4.648,1.914 -1.128,1.274 -1.693,2.975 -1.693,5.099 0,2.261 0.635,4.095 1.904,5.502 1.268,1.407 2.914,2.111 4.939,2.111 1.253,0 2.31,-0.175 3.17,-0.523 v -3.067 c -0.86,0.565 -1.839,0.848 -2.938,0.848 -1.206,0 -2.179,-0.418 -2.919,-1.252 -0.741,-0.835 -1.111,-1.966 -1.111,-3.393 0,-1.367 0.349,-2.457 1.048,-3.269 0.699,-0.813 1.639,-1.218 2.821,-1.218 1.128,0 2.162,0.302 3.099,0.907 z"></path></g><g transform="translate(120.7046,249.0137)" id="g684"><path id="path686" style="fill:#ffffff;fill-opacity:1;fill-rule:nonzero;stroke:none" d="m 0,0 v 3.156 c 0.52,-0.48 1.083,-0.84 1.693,-1.08 0.609,-0.24 1.224,-0.36 1.845,-0.36 0.363,0 0.682,0.037 0.953,0.108 C 4.763,1.896 4.99,1.997 5.172,2.126 5.354,2.254 5.49,2.405 5.58,2.579 5.669,2.754 5.714,2.942 5.714,3.146 5.714,3.423 5.642,3.669 5.499,3.886 5.355,4.103 5.16,4.304 4.912,4.487 4.665,4.672 4.371,4.849 4.03,5.02 3.69,5.191 3.323,5.365 2.929,5.543 1.926,6.003 1.178,6.564 0.685,7.229 0.193,7.893 -0.054,8.695 -0.054,9.636 c 0,0.736 0.135,1.368 0.404,1.897 0.268,0.53 0.633,0.965 1.096,1.308 0.463,0.341 0.999,0.593 1.608,0.754 0.609,0.161 1.254,0.242 1.934,0.242 0.669,0 1.262,-0.045 1.778,-0.134 0.516,-0.089 0.993,-0.225 1.428,-0.409 v -2.948 c -0.215,0.164 -0.449,0.308 -0.703,0.433 -0.253,0.125 -0.514,0.229 -0.783,0.311 -0.269,0.082 -0.536,0.143 -0.802,0.182 -0.265,0.04 -0.518,0.06 -0.757,0.06 -0.328,0 -0.627,-0.035 -0.895,-0.103 C 3.985,11.159 3.758,11.062 3.573,10.938 3.388,10.812 3.245,10.662 3.144,10.488 3.042,10.314 2.991,10.119 2.991,9.901 2.991,9.665 3.048,9.453 3.162,9.266 3.275,9.078 3.436,8.9 3.645,8.732 3.854,8.565 4.107,8.401 4.406,8.24 4.705,8.079 5.042,7.912 5.418,7.742 5.932,7.505 6.393,7.254 6.802,6.987 7.211,6.722 7.562,6.42 7.854,6.085 8.146,5.75 8.371,5.367 8.526,4.937 8.681,4.506 8.758,4.005 8.758,3.433 8.758,2.644 8.623,1.98 8.351,1.445 8.08,0.909 7.711,0.476 7.245,0.144 6.779,-0.188 6.238,-0.427 5.62,-0.571 5.002,-0.716 4.35,-0.789 3.663,-0.789 2.958,-0.789 2.288,-0.723 1.652,-0.591 1.017,-0.46 0.466,-0.263 0,0"></path></g><g transform="translate(131.4438,249.0137)" id="g688"><path id="path690" style="fill:#ffffff;fill-opacity:1;fill-rule:nonzero;stroke:none" d="m 0,0 v 3.156 c 0.52,-0.48 1.083,-0.84 1.693,-1.08 0.609,-0.24 1.224,-0.36 1.845,-0.36 0.363,0 0.682,0.037 0.953,0.108 C 4.763,1.896 4.99,1.997 5.172,2.126 5.354,2.254 5.49,2.405 5.58,2.579 5.669,2.754 5.714,2.942 5.714,3.146 5.714,3.423 5.642,3.669 5.499,3.886 5.355,4.103 5.16,4.304 4.912,4.487 4.665,4.672 4.371,4.849 4.03,5.02 3.69,5.191 3.323,5.365 2.929,5.543 1.926,6.003 1.178,6.564 0.686,7.229 c -0.493,0.664 -0.74,1.466 -0.74,2.407 0,0.736 0.135,1.368 0.404,1.897 0.268,0.53 0.633,0.965 1.096,1.308 0.463,0.341 0.999,0.593 1.608,0.754 0.609,0.161 1.254,0.242 1.934,0.242 0.669,0 1.262,-0.045 1.778,-0.134 0.516,-0.089 0.993,-0.225 1.428,-0.409 v -2.948 c -0.215,0.164 -0.449,0.308 -0.703,0.433 -0.253,0.125 -0.514,0.229 -0.783,0.311 -0.269,0.082 -0.536,0.143 -0.802,0.182 -0.265,0.04 -0.518,0.06 -0.757,0.06 -0.328,0 -0.627,-0.035 -0.895,-0.103 C 3.985,11.159 3.758,11.062 3.573,10.938 3.388,10.812 3.245,10.662 3.144,10.488 3.042,10.314 2.991,10.119 2.991,9.901 2.991,9.665 3.048,9.453 3.162,9.266 3.275,9.078 3.436,8.9 3.645,8.732 3.854,8.565 4.107,8.401 4.406,8.24 4.705,8.079 5.042,7.912 5.418,7.742 5.932,7.505 6.393,7.254 6.802,6.987 7.211,6.722 7.562,6.42 7.854,6.085 8.146,5.75 8.371,5.367 8.526,4.937 8.681,4.506 8.759,4.005 8.759,3.433 8.759,2.644 8.623,1.98 8.351,1.445 8.08,0.909 7.711,0.476 7.245,0.144 6.779,-0.188 6.238,-0.427 5.62,-0.571 5.002,-0.716 4.35,-0.789 3.663,-0.789 2.958,-0.789 2.288,-0.723 1.652,-0.591 1.017,-0.46 0.466,-0.263 0,0"></path></g><path id="path692" style="fill:#b2d3e4;fill-opacity:1;fill-rule:nonzero;stroke:none" d="M 79.864,170.386 H 11 v 34.854 h 68.864 z"></path><g transform="translate(29.6489,180.459)" id="g694"><path id="path696" style="fill:#ffffff;fill-opacity:1;fill-rule:nonzero;stroke:none" d="M 0,0 H -3.152 V 6.257 H -8.931 V 0 h -3.143 v 15.362 h 3.143 V 9.234 h 5.779 v 6.128 H 0 Z"></path></g><g transform="translate(43.1348,193.0039)" id="g698"><path id="path700" style="fill:#ffffff;fill-opacity:1;fill-rule:nonzero;stroke:none" d="M 0,0 H -3.979 V -12.545 H -7.131 V 0 h -3.96 V 2.817 H 0 Z"></path></g><g transform="translate(61.4067,180.459)" id="g702"><path id="path704" style="fill:#ffffff;fill-opacity:1;fill-rule:nonzero;stroke:none" d="m 0,0 h -3.103 v 9.191 c 0,0.994 0.039,2.089 0.117,3.289 H -3.064 C -3.226,11.538 -3.372,10.859 -3.502,10.445 L -6.771,0 h -2.568 l -3.328,10.338 c -0.09,0.278 -0.236,0.993 -0.437,2.142 h -0.088 c 0.085,-1.513 0.127,-2.841 0.127,-3.985 V 0 h -2.831 v 15.362 h 4.601 L -8.444,6.257 C -8.217,5.528 -8.052,4.796 -7.948,4.06 h 0.058 c 0.176,0.85 0.36,1.589 0.555,2.217 l 2.85,9.085 H 0 Z"></path></g><g transform="translate(73.3848,180.459)" id="g706"><path id="path708" style="fill:#ffffff;fill-opacity:1;fill-rule:nonzero;stroke:none" d="m 0,0 h -8.308 v 15.362 h 3.142 V 2.807 l 5.166,0 z"></path></g><g transform="translate(188.0693,164.2363)" id="g710"><path id="path712" style="fill:#b6d5d0;fill-opacity:1;fill-rule:nonzero;stroke:none" d="m 0,0 c 0,-2.007 -1.478,-3.633 -3.299,-3.633 -1.823,0 -3.3,1.626 -3.3,3.633 0,2.007 1.477,3.633 3.3,3.633 C -1.478,3.633 0,2.007 0,0"></path></g><g transform="translate(188.0693,181.334)" id="g714"><path id="path716" style="fill:#b6d5d0;fill-opacity:1;fill-rule:nonzero;stroke:none" d="m 0,0 c 0,-2.007 -1.478,-3.634 -3.299,-3.634 -1.823,0 -3.3,1.627 -3.3,3.634 0,2.006 1.477,3.633 3.3,3.633 C -1.478,3.633 0,2.006 0,0"></path></g><g transform="translate(188.0693,198.4307)" id="g718"><path id="path720" style="fill:#b6d5d0;fill-opacity:1;fill-rule:nonzero;stroke:none" d="m 0,0 c 0,-2.007 -1.478,-3.633 -3.299,-3.633 -1.823,0 -3.3,1.626 -3.3,3.633 0,2.007 1.477,3.633 3.3,3.633 C -1.478,3.633 0,2.007 0,0"></path></g><g transform="translate(510.8818,349.8071)" id="g722"><path id="path724" style="fill:#93405e;fill-opacity:1;fill-rule:nonzero;stroke:none" d="m 0,0 c 0,0 0.476,3.155 3.037,5.105 2.561,1.95 18.954,9.879 23.405,1.249 z"></path></g></g></g></g></svg>