<?xml version="1.0" encoding="UTF-8"?>
<svg id="Layer_2" data-name="Layer 2" xmlns="http://www.w3.org/2000/svg" viewBox="0 0 110.16 127.34">
  <defs>
    <style>
      .cls-1 {
        fill: #8542d4;
      }
    </style>
  </defs>
  <g id="OBJECTS">
    <rect class="cls-1" y="9.12" width="22.67" height="118.22"/>
    <rect class="cls-1" x="30.52" y="52.67" width="20.44" height="74.2"/>
    <rect class="cls-1" x="58.67" y="62.6" width="22.67" height="64.75"/>
    <rect class="cls-1" x="89.19" y="74.51" width="20.44" height="52.5"/>
    <path class="cls-1" d="M94.59,7.44c-6.42-8.49-18.82-9.92-27.7-3.21-8.88,6.72-10.88,19.04-4.46,27.53,5.67,7.49,15.99,9.49,24.45,5.23l17.19,22.73,6.09-4.61-17.19-22.73c6.4-6.98,7.29-17.46,1.62-24.95Zm-3.13,22.96l-.03-.04-6.09,4.61,.03,.04c-7.01,3.13-15.49,1.15-20.32-5.23-5.62-7.43-4.15-18.01,3.28-23.63,7.43-5.62,18.01-4.15,23.63,3.28,4.83,6.38,4.42,15.09-.5,20.98Z"/>
  </g>
</svg>