<?xml version="1.0" encoding="UTF-8"?>
<svg id="Layer_2" data-name="Layer 2" xmlns="http://www.w3.org/2000/svg" viewBox="0 0 80.68 92.66">
  <defs>
    <style>
      .cls-1 {
        fill: #42a145;
      }
    </style>
  </defs>
  <g id="OBJECTS">
    <path class="cls-1" d="M71.25,17.92c2.95-2.58,4.67-5.42,5.66-8.02h3.77V0h-9.9V9.9h3.83c-.93,2.11-2.4,4.35-4.76,6.42-5.11,4.47-13.01,6.75-23.07,6.71L27.33,9.59c.3-.43,.49-.94,.49-1.51,0-1.44-1.16-2.6-2.6-2.6s-2.6,1.16-2.6,2.6,1.16,2.6,2.6,2.6c.69,0,1.32-.28,1.79-.72l18.89,13.05c-1.98-.03-4.03-.14-6.17-.35-12.26-1.21-21.48,.89-27.41,6.22-2.24,2.02-3.7,4.22-4.65,6.25H0v13.87H13.87v-13.87h-3.8c.84-1.56,2.03-3.19,3.7-4.69,5.47-4.9,14.14-6.8,25.75-5.66,2,.2,3.93,.31,5.81,.35l-15.94,35c-.24,.53-.11,1.16,.33,1.55,.09,.08,9.45,8.49,9.45,23.22,0,0,0,.01,0,.02h-9.5v7.75h34.82v-7.75h-9.56s0-.01,0-.02c0-14.67,9.35-23.14,9.45-23.22,.44-.39,.57-1.02,.33-1.55l-15.96-35c.06,0,.12,0,.19,0l20.67,14.28c-.21,.38-.34,.8-.34,1.26,0,1.43,1.16,2.6,2.6,2.6s2.6-1.16,2.6-2.6-1.17-2.6-2.6-2.6c-.8,0-1.5,.37-1.98,.93l-20.13-13.91c9.18-.4,16.51-2.82,21.48-7.17Zm-18.96,66.98s0,.01,0,.02h-10.47s0-.01,0-.02c0-13.61-7.26-22.11-9.63-24.52l13.78-30.27v26.21c-1.8,.47-3.13,2.09-3.13,4.04,0,2.31,1.88,4.19,4.19,4.19s4.19-1.88,4.19-4.19c0-1.95-1.33-3.57-3.13-4.04V30.09l13.81,30.28c-2.36,2.41-9.63,10.91-9.63,24.52Z"/>
  </g>
</svg>