<?xml version="1.0" encoding="UTF-8"?>
<svg id="Layer_2" data-name="Layer 2" xmlns="http://www.w3.org/2000/svg" viewBox="0 0 104.73 90.7">
  <defs>
    <style>
      .cls-1 {
        fill: #fff;
      }

      .cls-2 {
        fill: #1c57b9;
      }
    </style>
  </defs>
  <g id="OBJECTS">
    <path class="cls-2" d="M99.92,45.35l-11.82-20.47v-.16l-.14-.08-11.82-20.47h-23.65s-.13-.08-.13-.08l-.14,.08H28.59l-11.81,20.47h-.01s-.13,.08-.13,.08v.17L4.82,45.35l11.81,20.46v.17l.14,.08,11.82,20.47h23.64s.13,.08,.13,.08l.14-.08h23.64l11.81-20.47h.01s.13-.08,.13-.08v-.17l11.82-20.47Zm-46.56-.26l34.21-19.75v19.75H53.36Zm34.21,.53v19.75l-34.21-19.75h34.21Zm-34.48-.99l17.11-29.63,17.1,9.88-34.21,19.75Zm-.46-.26V4.85l17.11,9.88-17.11,29.63Zm-.53,0L34.99,14.73,52.1,4.85V44.36Zm-.46,.27L17.43,24.87l17.11-9.88,17.11,29.63Zm-.27,.46H17.16s0-19.75,0-19.75l34.21,19.75Zm0,.53l-34.21,19.75v-19.75H51.38Zm.27,.46l-17.11,29.63-17.11-9.88,34.21-19.75Zm.46,.27v39.5l-17.1-9.88,17.1-29.63Zm.53,0l17.11,29.63-17.11,9.88V46.34Zm.46-.26l34.21,19.75-17.1,9.88-17.11-29.63Zm35.01-.46h11.05l-11.05,19.14v-19.14Zm11.05-.53h-11.05V25.94l11.05,19.14Zm-28.69-30.55l5.53-9.57,11.05,19.14-16.58-9.57Zm5.07-9.84l-5.53,9.57L53.43,4.7h22.1ZM34.73,14.27l-5.52-9.57h22.1l-16.57,9.57Zm-5.98-9.3l5.52,9.57-16.57,9.57L28.74,4.97Zm-12.11,40.12H5.58l11.05-19.14v19.14Zm-11.05,.53h11.05v19.14L5.58,45.62Zm28.69,30.55l-5.52,9.57-11.05-19.14,16.57,9.57Zm-5.06,9.83l5.52-9.57,16.57,9.57H29.2Zm40.8-9.57l5.53,9.57h-22.1l16.58-9.57Zm5.99,9.3l-5.53-9.57,16.57-9.57-11.05,19.14Z"/>
    <path class="cls-2" d="M78.55,90.7H26.18L0,45.35,26.18,0h52.37l26.18,45.35-26.18,45.35Zm-51.12-2.15h49.88l24.94-43.2L77.31,2.15H27.43L2.49,45.35l24.94,43.2Z"/>
    <polygon class="cls-2" points="34.56 76.19 16.76 45.35 34.56 14.51 70.17 14.51 87.98 45.35 70.17 76.19 34.56 76.19"/>
    <path class="cls-1" d="M69.48,47.47h-9.16l-2.97-11.09c.77-1.05,1.24-2.35,1.24-3.76,0-2.95-2.01-5.42-4.73-6.13v-4.77h-3.23v4.77c-2.72,.72-4.73,3.19-4.73,6.13,0,1.41,.46,2.7,1.24,3.75l-2.97,11.09h-9.16v.65h8.98l-4.75,17.74,1.31,3.03,2.65-1.97,5.04-18.8h8.04l5.04,18.82,.83-.22,.3,1.14,.84-.22,.61,2.27,.62-.17-.61-2.27,.83-.22-.31-1.14,.84-.22-4.76-17.76h8.99v-.65Zm-17.24-18.38c1.96,0,3.54,1.59,3.54,3.54s-1.58,3.54-3.54,3.54-3.54-1.59-3.54-3.54,1.59-3.54,3.54-3.54Zm-3.85,18.38l2.33-8.68c.48,.12,.99,.19,1.52,.19s1.03-.07,1.52-.19l2.33,8.68h-7.69Z"/>
  </g>
</svg>