<?xml version="1.0" encoding="UTF-8"?>
<svg id="Layer_2" data-name="Layer 2" xmlns="http://www.w3.org/2000/svg" viewBox="0 0 69.01 65.83">
  <defs>
    <style>
      .cls-1 {
        fill: #ee373e;
      }
    </style>
  </defs>
  <g id="OBJECTS">
    <g>
      <path class="cls-1" d="M67.6,29.79c-1.88-2.35-4.98-2.55-4.98-2.55-.32-.08-.64-.13-.95-.16v-1.96C61.66,11.27,50.46,0,36.68,0h-4.36C18.55,0,7.35,11.27,7.35,25.12v1.96c-.31,.03-.63,.08-.95,.16,0,0-3.11,.21-4.99,2.55-1.87,2.35-1.87,19.96,0,22.31,1.88,2.35,4.99,2.55,4.99,2.55,1.11,.28,2.15,.26,3.08,0,2.22-.62,3.76-2.62,3.76-5.37v-16.67c0-2.07-.87-3.72-2.25-4.67v-2.82C10.98,13.28,20.55,3.65,32.32,3.65h4.36c11.77,0,21.34,9.63,21.34,21.47v2.82c-1.38,.95-2.25,2.6-2.25,4.67v16.67c0,1.84,.7,3.34,1.82,4.32-.2,.48-.41,.99-.64,1.56l-.21,.5c-1,2.41-4.05,4.44-6.65,4.44h-5.65c-.19-2.79-2.49-4.99-5.33-4.99h-5.17c-2.96,0-5.36,2.4-5.36,5.36s2.4,5.36,5.36,5.36h5.17c2.58,0,4.73-1.82,5.25-4.25h5.73c3.2,0,6.8-2.4,8.02-5.35l.21-.5c.2-.49,.38-.92,.55-1.32,.21,.09,.43,.18,.66,.24,.93,.26,1.97,.28,3.08,0,0,0,3.11-.21,4.98-2.55,1.88-2.35,1.88-19.96,0-22.31Z"/>
      <path class="cls-1" d="M31.52,52.6l1.6-7c.73-.01,1.59-.06,2.52-.15h4.15c6.11,0,11.07-4.96,11.07-11.07v-1.76c0-6.12-4.96-11.07-11.07-11.07h-10.05c-6.12,0-11.07,4.96-11.07,11.07v1.76c0,5.76,4.4,10.49,10.02,11.02l2.82,7.2Zm-5.25-23.48h17.47c.41,0,.74,.33,.74,.74s-.33,.74-.74,.74H26.27c-.41,0-.74-.33-.74-.74s.33-.74,.74-.74Zm0,4.04h17.47c.41,0,.74,.33,.74,.74s-.33,.74-.74,.74H26.27c-.41,0-.74-.33-.74-.74s.33-.74,.74-.74Zm-.74,4.79c0-.41,.33-.74,.74-.74h17.47c.41,0,.74,.33,.74,.74s-.33,.74-.74,.74H26.27c-.41,0-.74-.33-.74-.74Z"/>
    </g>
  </g>
</svg>